<svg xmlns="http://www.w3.org/2000/svg" xmlns:xlink="http://www.w3.org/1999/xlink" width="500" zoomAndPan="magnify" viewBox="0 0 375 374.999991" height="500" preserveAspectRatio="xMidYMid meet" version="1.0"><defs><filter x="0%" y="0%" width="100%" height="100%" id="id1"><feColorMatrix values="0 0 0 0 1 0 0 0 0 1 0 0 0 0 1 0 0 0 1 0" color-interpolation-filters="sRGB"/></filter><mask id="id2"><g filter="url(#id1)"><rect x="-37.5" width="450" fill="#000000" y="-37.499999" height="449.999989" fill-opacity="0.2471"/></g></mask><clipPath id="id3"><path d="M 39 12 L 237 12 L 237 247 L 39 247 Z M 39 12 " clip-rule="nonzero"/></clipPath><clipPath id="id4"><path d="M 214.003906 -30.324219 L 285.039062 233.273438 L 56.199219 294.9375 L -14.832031 31.339844 Z M 214.003906 -30.324219 " clip-rule="nonzero"/></clipPath><clipPath id="id5"><path d="M 214.003906 -30.324219 L 285.039062 233.273438 L 56.199219 294.9375 L -14.832031 31.339844 Z M 214.003906 -30.324219 " clip-rule="nonzero"/></clipPath><clipPath id="id6"><rect x="0" width="266" y="0" height="262"/></clipPath><clipPath id="id7"><path d="M 70.089844 38 L 330 38 L 330 346 L 70.089844 346 Z M 70.089844 38 " clip-rule="nonzero"/></clipPath></defs><g mask="url(#id2)"><g transform="matrix(1, 0, 0, 1, 90, 52)"><g clip-path="url(#id6)"><g clip-path="url(#id3)"><g clip-path="url(#id4)"><g clip-path="url(#id5)"><path fill="#f2dedc" d="M 224.023438 172.125 C 201.726562 215.859375 80.835938 288.113281 45.902344 217.027344 C 22.25 168.957031 69.863281 167.84375 114.050781 111.6875 C 128.667969 93.078125 128.4375 -7.082031 188.949219 15.335938 C 224.808594 28.632812 253.148438 114.929688 224.023438 172.125 Z M 224.023438 172.125 " fill-opacity="1" fill-rule="nonzero"/></g></g></g></g></g></g><g clip-path="url(#id7)"><path fill="#b0626b" d="M 329.652344 168.785156 C 329.035156 162.464844 325.625 156.820312 321.824219 151.890625 C 318.019531 146.960938 313.953125 142.527344 309.8125 138.058594 C 292.601562 119.601562 273.609375 103.207031 252.835938 88.875 C 232.003906 74.40625 209.878906 62.300781 186.453125 52.5625 C 180.785156 50.214844 175.054688 48.027344 169.265625 45.992188 C 166.304688 44.976562 163.328125 44 160.339844 43.058594 C 157.359375 42.011719 154.335938 41.121094 151.269531 40.378906 C 145.976562 39.261719 140.195312 40.695312 137.828125 45.910156 C 136.957031 48.046875 136.421875 50.261719 136.226562 52.5625 C 135.796875 56.027344 135.417969 59.507812 135.019531 62.972656 L 132.523438 84.519531 C 132.523438 84.980469 132.664062 85.390625 132.945312 85.757812 C 133.226562 86.121094 133.589844 86.363281 134.035156 86.480469 C 156.125 90.871094 177.238281 98.101562 197.375 108.179688 C 217.824219 118.332031 237.144531 131.121094 253.667969 146.921875 C 262.617188 155.375 270.472656 164.738281 277.234375 175.019531 C 278.664062 177.21875 282.199219 175.179688 280.765625 172.96875 C 268.457031 154.019531 251.851562 138.1875 233.546875 125.074219 C 214.335938 111.425781 193.640625 100.628906 171.449219 92.679688 C 160.144531 88.554688 148.59375 85.28125 136.800781 82.867188 C 137.539062 76.542969 138.273438 70.203125 139.007812 63.847656 C 139.417969 60.308594 139.816406 56.757812 140.234375 53.21875 C 140.375 51.347656 140.777344 49.535156 141.441406 47.785156 C 143.710938 42.605469 149.824219 44.121094 154.105469 45.398438 C 159.648438 47.042969 165.113281 48.835938 170.507812 50.78125 C 192.648438 58.789062 213.738281 68.972656 233.773438 81.332031 C 253.960938 93.6875 272.71875 107.929688 290.039062 124.054688 C 298.523438 131.957031 306.5625 140.289062 314.15625 149.050781 C 320.695312 156.601562 331.105469 169.1875 322.207031 178.820312 C 320.191406 180.851562 318 182.675781 315.632812 184.285156 C 313.011719 186.203125 310.367188 188.09375 307.703125 189.953125 C 302.382812 193.683594 296.988281 197.308594 291.519531 200.832031 C 280.589844 207.878906 269.394531 214.476562 257.9375 220.621094 C 252.207031 223.699219 246.414062 226.664062 240.550781 229.511719 C 236.273438 231.734375 231.859375 233.636719 227.308594 235.21875 C 230.402344 229.933594 232.867188 224.371094 234.703125 218.527344 C 237.503906 209.332031 238.542969 197.972656 233.191406 189.449219 C 226.816406 179.273438 213.539062 177.730469 203.28125 182.617188 C 193.574219 187.242188 187.027344 197.300781 185.894531 207.855469 C 184.6875 218.816406 190.316406 229.277344 199.167969 235.539062 C 201.378906 237.101562 203.753906 238.355469 206.296875 239.292969 C 208.839844 240.230469 211.457031 240.824219 214.15625 241.070312 C 215.667969 241.203125 217.179688 241.214844 218.691406 241.109375 C 214.175781 247.664062 208.988281 253.640625 203.128906 259.03125 C 194.921875 266.582031 184.558594 272.25 178.457031 281.839844 C 172.070312 291.871094 172.941406 304.238281 168.277344 314.890625 C 166.339844 319.296875 163.46875 323.59375 159.160156 325.964844 C 158.21875 326.5 157.222656 326.886719 156.164062 327.121094 C 155.109375 327.355469 154.039062 327.425781 152.960938 327.339844 C 151.882812 327.25 150.839844 327.003906 149.835938 326.601562 C 148.828125 326.199219 147.90625 325.65625 147.066406 324.976562 C 144.195312 322.769531 142.015625 318.980469 143.921875 315.484375 C 144.851562 313.78125 142.910156 311.523438 141.132812 312.691406 C 129.15625 320.5625 116.878906 327.957031 104.300781 334.871094 C 101.195312 336.574219 98.078125 338.242188 94.941406 339.878906 C 92.804688 341.085938 90.511719 341.722656 88.054688 341.789062 C 86.96875 341.785156 85.894531 341.652344 84.835938 341.394531 C 83.777344 341.136719 82.765625 340.757812 81.796875 340.261719 C 80.828125 339.761719 79.929688 339.160156 79.105469 338.449219 C 78.28125 337.738281 77.550781 336.941406 76.914062 336.058594 C 73.519531 331.257812 74.550781 325.949219 75.238281 320.527344 C 76.144531 313.320312 77.1875 306.136719 78.367188 298.96875 C 80.6875 284.84375 83.40625 270.742188 86.824219 256.835938 C 87.382812 254.570312 87.996094 252.304688 88.660156 250.039062 C 91.554688 256.871094 96.089844 263.003906 102.484375 267.148438 C 111.179688 272.757812 122.007812 273.1875 131.480469 269.292969 C 140.710938 265.472656 148.667969 257.71875 150.867188 247.746094 C 153.296875 236.761719 148.132812 225.421875 139.53125 218.492188 C 137.410156 216.730469 135.097656 215.273438 132.589844 214.121094 C 130.085938 212.96875 127.472656 212.160156 124.753906 211.695312 C 122.015625 211.285156 119.277344 211.292969 116.539062 211.71875 C 113.800781 212.144531 111.191406 212.964844 108.707031 214.1875 C 99.3125 218.65625 93.210938 227.65625 89.054688 236.917969 C 88.402344 232.972656 88.019531 229.003906 87.90625 225.007812 C 87.558594 214.339844 88.828125 203.761719 90.300781 193.222656 C 91.988281 181.144531 94.042969 169.066406 97.808594 157.429688 C 98.257812 159.738281 99.09375 161.898438 100.3125 163.910156 C 101.535156 165.921875 103.0625 167.660156 104.90625 169.125 C 112.464844 175.066406 123.363281 177.136719 132.675781 175.164062 C 134.957031 174.734375 137.101562 173.933594 139.113281 172.769531 C 141.121094 171.605469 142.878906 170.136719 144.382812 168.371094 C 146.1875 166.140625 147.632812 163.703125 148.71875 161.046875 C 149.804688 158.394531 150.484375 155.640625 150.753906 152.789062 C 152.003906 141.464844 147.082031 127.355469 135.894531 122.671875 C 124.835938 118.046875 111.074219 123.65625 104.535156 133.242188 C 103.960938 134.089844 103.414062 134.957031 102.878906 135.832031 C 103.339844 133.53125 103.824219 131.242188 104.269531 128.953125 C 105.683594 121.675781 107.101562 114.394531 108.515625 107.105469 L 117.132812 62.8125 C 118.554688 55.6875 119.957031 48.578125 121.335938 41.488281 C 121.835938 38.933594 117.898438 37.824219 117.398438 40.445312 C 111.257812 72.011719 105.109375 103.597656 98.964844 135.199219 C 98.128906 139.1875 97.558594 143.214844 97.246094 147.277344 C 96.683594 148.667969 96.140625 150.054688 95.621094 151.445312 C 93.246094 157.964844 91.351562 164.617188 89.945312 171.414062 C 88.472656 178.328125 87.375 185.328125 86.402344 192.332031 C 85.578125 198.25 84.753906 204.175781 84.285156 210.132812 C 83.4375 220.996094 83.527344 232.199219 86.265625 242.769531 C 86.332031 243.050781 86.417969 243.320312 86.492188 243.59375 C 82.710938 254.222656 80.574219 265.484375 78.359375 276.484375 C 75.257812 291.824219 72.761719 307.273438 70.859375 322.832031 C 70.480469 325.941406 70.105469 328.917969 70.746094 332.019531 C 71.304688 334.519531 72.367188 336.785156 73.9375 338.8125 C 74.710938 339.820312 75.585938 340.738281 76.554688 341.558594 C 77.523438 342.382812 78.570312 343.09375 79.691406 343.695312 C 80.8125 344.296875 81.984375 344.773438 83.207031 345.125 C 84.429688 345.480469 85.675781 345.699219 86.945312 345.789062 C 93.363281 346.234375 98.949219 342.382812 104.328125 339.457031 C 111.0625 335.820312 117.707031 332.03125 124.261719 328.078125 C 129.261719 325.058594 134.210938 321.972656 139.105469 318.816406 C 139.507812 326.222656 148.328125 332.40625 155.738281 331.332031 C 167.074219 329.730469 172.605469 317.132812 174.820312 307.332031 C 176.25 301.042969 177.050781 294.5 179.5 288.511719 C 181.820312 282.851562 185.933594 278.394531 190.527344 274.46875 C 195.125 270.542969 200 267.15625 204.488281 263.191406 C 209.21875 259.027344 213.546875 254.484375 217.476562 249.5625 C 219.820312 246.613281 222.078125 243.523438 224.1875 240.292969 C 227.410156 239.542969 230.546875 238.519531 233.589844 237.222656 C 239.910156 234.59375 246.023438 231.445312 252.09375 228.320312 C 258.378906 225.097656 264.582031 221.738281 270.710938 218.242188 C 282.804688 211.339844 294.597656 203.941406 306.09375 196.046875 C 311.558594 192.273438 317.160156 188.566406 322.277344 184.34375 C 327.015625 180.417969 330.265625 175.132812 329.652344 168.785156 Z M 98.515625 228.378906 C 104.109375 220.492188 113.015625 214.460938 123.054688 215.546875 C 132.878906 216.574219 141.746094 223.964844 145.503906 232.910156 C 149.257812 241.855469 147.015625 251.835938 140.210938 258.730469 C 138.613281 260.339844 136.855469 261.757812 134.945312 262.980469 C 133.03125 264.203125 131.007812 265.199219 128.875 265.972656 C 126.738281 266.75 124.546875 267.28125 122.292969 267.566406 C 120.042969 267.855469 117.785156 267.894531 115.523438 267.683594 C 106.453125 266.695312 98.835938 260.449219 94.464844 252.691406 C 92.867188 249.839844 91.609375 246.847656 90.6875 243.714844 C 92.605469 238.25 95.21875 233.140625 98.515625 228.378906 Z M 101.1875 148.710938 L 101.1875 148.433594 C 102.746094 144.71875 104.550781 141.128906 106.597656 137.660156 C 107.914062 135.367188 109.550781 133.328125 111.503906 131.546875 C 113.457031 129.765625 115.636719 128.320312 118.042969 127.21875 C 123.039062 124.953125 129.015625 124.199219 134.210938 126.296875 C 139.402344 128.394531 143.054688 133.460938 144.964844 138.59375 C 148.503906 148.109375 147.429688 160.164062 139.675781 167.402344 C 133.628906 173.074219 123.203125 172.492188 115.871094 170.210938 C 112.003906 169.011719 108.199219 167.070312 105.441406 164.042969 C 101.78125 159.960938 100.996094 154.019531 101.1875 148.710938 Z M 221.566406 236.601562 C 220.339844 236.808594 219.105469 236.929688 217.863281 236.96875 C 216.621094 237.007812 215.382812 236.964844 214.148438 236.835938 C 212.914062 236.707031 211.691406 236.496094 210.484375 236.199219 C 209.277344 235.90625 208.097656 235.53125 206.941406 235.078125 C 205.785156 234.621094 204.664062 234.089844 203.582031 233.484375 C 202.496094 232.878906 201.460938 232.203125 200.46875 231.457031 C 199.476562 230.707031 198.539062 229.898438 197.65625 229.023438 C 196.773438 228.152344 195.957031 227.222656 195.199219 226.238281 C 194.457031 225.277344 193.789062 224.269531 193.191406 223.214844 C 192.589844 222.160156 192.070312 221.070312 191.625 219.945312 C 191.179688 218.816406 190.816406 217.664062 190.535156 216.484375 C 190.253906 215.304688 190.058594 214.113281 189.945312 212.90625 C 189.832031 211.699219 189.804688 210.488281 189.863281 209.277344 C 189.921875 208.070312 190.0625 206.867188 190.289062 205.679688 C 190.519531 204.488281 190.828125 203.320312 191.222656 202.171875 C 191.617188 201.027344 192.085938 199.914062 192.636719 198.832031 C 197.171875 189.675781 206.6875 182.976562 217.210938 183.988281 C 218.417969 184.089844 219.601562 184.324219 220.761719 184.683594 C 221.917969 185.046875 223.023438 185.53125 224.074219 186.140625 C 225.121094 186.746094 226.09375 187.460938 226.984375 188.28125 C 227.878906 189.105469 228.667969 190.015625 229.359375 191.011719 C 231.769531 194.628906 232.714844 198.96875 232.828125 203.265625 C 233.097656 213.417969 229.191406 223.019531 224.390625 231.777344 C 223.53125 233.417969 222.570312 235.015625 221.566406 236.601562 Z M 221.566406 236.601562 " fill-opacity="1" fill-rule="nonzero"/></g></svg>