<svg xmlns="http://www.w3.org/2000/svg" xmlns:xlink="http://www.w3.org/1999/xlink" width="500" zoomAndPan="magnify" viewBox="0 0 375 374.999991" height="500" preserveAspectRatio="xMidYMid meet" version="1.0"><defs><filter x="0%" y="0%" width="100%" height="100%" id="id1"><feColorMatrix values="0 0 0 0 1 0 0 0 0 1 0 0 0 0 1 0 0 0 1 0" color-interpolation-filters="sRGB"/></filter><mask id="id2"><g filter="url(#id1)"><rect x="-37.5" width="450" fill="#000000" y="-37.499999" height="449.999989" fill-opacity="0.2471"/></g></mask><clipPath id="id3"><path d="M 5 10 L 228 10 L 228 215 L 5 215 Z M 5 10 " clip-rule="nonzero"/></clipPath><clipPath id="id4"><path d="M -13.375 239.210938 L 6.496094 -33.066406 L 242.867188 -15.816406 L 222.996094 256.460938 Z M -13.375 239.210938 " clip-rule="nonzero"/></clipPath><clipPath id="id5"><path d="M -13.375 239.210938 L 6.496094 -33.066406 L 242.867188 -15.816406 L 222.996094 256.460938 Z M -13.375 239.210938 " clip-rule="nonzero"/></clipPath><clipPath id="id6"><rect x="0" width="232" y="0" height="228"/></clipPath><clipPath id="id7"><path d="M 86.351562 26 L 307 26 L 307 277 L 86.351562 277 Z M 86.351562 26 " clip-rule="nonzero"/></clipPath></defs><g mask="url(#id2)"><g transform="matrix(1, 0, 0, 1, 77, 15)"><g clip-path="url(#id6)"><g clip-path="url(#id3)"><g clip-path="url(#id4)"><g clip-path="url(#id5)"><path fill="#b0626b" d="M 43.929688 44.78125 C 79.402344 10.847656 217.355469 -17.496094 226.898438 61.132812 C 233.371094 114.3125 188.054688 99.664062 127.820312 138.105469 C 107.882812 150.855469 75.070312 245.488281 25.335938 204.367188 C -4.128906 179.988281 -2.425781 89.175781 43.929688 44.78125 Z M 43.929688 44.78125 " fill-opacity="1" fill-rule="nonzero"/></g></g></g></g></g></g><g clip-path="url(#id7)"><path fill="#b0626b" d="M 170.058594 274.710938 C 173.769531 262.835938 176.480469 250.742188 178.199219 238.421875 C 179.914062 226.101562 180.605469 213.726562 180.28125 201.292969 C 180.007812 191.03125 179.980469 177.917969 171.695312 170.453125 C 168.320312 167.40625 163.699219 165.355469 159.09375 165.628906 C 157.996094 165.671875 156.921875 165.863281 155.875 166.195312 C 154.824219 166.527344 153.839844 166.988281 152.914062 167.585938 C 151.992188 168.179688 151.160156 168.886719 150.425781 169.703125 C 149.691406 170.523438 149.074219 171.421875 148.582031 172.402344 C 147.679688 174.375 147.1875 176.441406 147.113281 178.609375 C 147.039062 180.773438 147.382812 182.871094 148.144531 184.902344 C 148.976562 187.089844 150.1875 189.046875 151.777344 190.765625 C 153.371094 192.484375 155.226562 193.84375 157.351562 194.839844 C 166.132812 199.128906 176.96875 198.148438 185.886719 194.777344 C 189.179688 193.523438 192.308594 191.949219 195.277344 190.054688 C 198.25 188.160156 200.992188 185.980469 203.515625 183.523438 C 206.039062 181.066406 208.285156 178.375 210.253906 175.457031 C 212.222656 172.539062 213.875 169.449219 215.210938 166.191406 C 216.941406 161.949219 218.320312 157.117188 218.335938 152.496094 C 218.335938 150.058594 217.726562 147.429688 215.832031 145.75 C 214.878906 144.957031 213.800781 144.429688 212.589844 144.167969 C 211.378906 143.902344 210.175781 143.933594 208.980469 144.253906 C 203.464844 145.535156 201.148438 151.265625 199.324219 155.996094 C 195.414062 166.15625 193.347656 178.425781 200.039062 187.953125 C 200.746094 188.992188 201.546875 189.949219 202.441406 190.832031 C 203.339844 191.710938 204.3125 192.496094 205.363281 193.183594 C 206.414062 193.871094 207.523438 194.449219 208.691406 194.914062 C 209.855469 195.382812 211.058594 195.730469 212.292969 195.960938 C 217.511719 196.871094 222.777344 195.753906 227.605469 193.710938 C 232.644531 191.457031 237.230469 188.503906 241.371094 184.859375 C 245.785156 181.113281 249.746094 176.9375 253.246094 172.332031 C 256.277344 168.359375 258.851562 162.75 255.15625 158.289062 C 251.347656 153.710938 245.089844 156.996094 241.308594 159.824219 C 233.441406 165.707031 229.0625 174.867188 226.21875 184.015625 C 222.71875 195.277344 220.808594 207.167969 219.703125 218.886719 C 218.523438 231.367188 218.523438 243.847656 219.703125 256.328125 C 219.988281 259.382812 220.300781 262.453125 220.78125 265.492188 C 221.074219 267.65625 221.789062 269.675781 222.925781 271.542969 C 224.085938 273.316406 225.789062 274.746094 227.933594 274.929688 C 230.316406 275.128906 232.332031 273.789062 233.65625 271.914062 C 234.976562 270.042969 235.601562 267.8125 236.375 265.707031 C 237.089844 263.769531 237.867188 261.867188 238.710938 259.988281 C 240.449219 256.121094 242.386719 252.355469 244.527344 248.691406 C 253.210938 233.769531 264.496094 220.617188 275.101562 207.066406 C 285.707031 193.519531 295.792969 179.570312 301.75 163.425781 C 307.988281 146.527344 308.316406 128.261719 304.210938 110.8125 C 302.152344 102.25 299.078125 94.0625 294.992188 86.261719 C 290.902344 78.457031 285.921875 71.269531 280.050781 64.699219 C 274.222656 58.167969 267.726562 52.386719 260.558594 47.359375 C 253.390625 42.328125 245.746094 38.183594 237.617188 34.925781 C 229.242188 31.5625 220.585938 29.25 211.652344 27.984375 C 202.714844 26.71875 193.757812 26.539062 184.777344 27.441406 C 180.324219 27.890625 175.917969 28.625 171.558594 29.648438 C 167.203125 30.667969 162.929688 31.96875 158.738281 33.542969 C 154.550781 35.121094 150.480469 36.960938 146.53125 39.066406 C 142.582031 41.171875 138.785156 43.523438 135.144531 46.121094 C 128.023438 51.304688 121.589844 57.226562 115.839844 63.886719 C 110.085938 70.550781 105.167969 77.777344 101.085938 85.574219 C 96.878906 93.527344 93.53125 101.828125 91.050781 110.476562 C 88.355469 119.886719 86.328125 129.769531 86.765625 139.554688 C 87.675781 159.996094 98.722656 177.503906 111.363281 192.882812 C 117.964844 200.914062 125.195312 208.410156 131.6875 216.527344 C 138.46875 225.003906 144.664062 234.207031 148.851562 244.238281 C 152.742188 253.527344 154.890625 263.734375 153.144531 273.738281 C 152.738281 276.03125 156.25 277.015625 156.664062 274.710938 C 160.375 254.050781 149.597656 234.097656 137.53125 218.144531 C 125.773438 202.585938 111.203125 189.308594 101.128906 172.480469 C 96.363281 164.527344 92.730469 155.917969 91.171875 146.757812 C 89.5625 137.289062 90.621094 127.839844 92.746094 118.550781 C 94.59375 110.308594 97.257812 102.335938 100.730469 94.632812 C 104.207031 86.933594 108.425781 79.660156 113.386719 72.820312 C 118.195312 66.191406 123.707031 60.210938 129.917969 54.875 C 136.132812 49.542969 142.882812 45 150.164062 41.25 C 157.835938 37.410156 165.871094 34.585938 174.261719 32.777344 C 182.652344 30.972656 191.136719 30.238281 199.710938 30.578125 C 203.835938 30.730469 207.9375 31.113281 212.019531 31.730469 C 216.101562 32.347656 220.132812 33.191406 224.117188 34.261719 C 228.105469 35.335938 232.015625 36.628906 235.855469 38.140625 C 239.691406 39.65625 243.433594 41.382812 247.078125 43.320312 C 250.71875 45.257812 254.242188 47.394531 257.644531 49.730469 C 261.042969 52.066406 264.300781 54.585938 267.417969 57.289062 C 270.535156 59.996094 273.488281 62.867188 276.277344 65.90625 C 279.066406 68.941406 281.675781 72.128906 284.105469 75.460938 C 289.007812 82.242188 293.015625 89.511719 296.128906 97.277344 C 299.242188 105.042969 301.371094 113.066406 302.507812 121.351562 C 303.726562 129.816406 303.699219 138.273438 302.429688 146.726562 C 301.101562 154.660156 298.71875 162.265625 295.277344 169.535156 C 288.410156 184.25 278.347656 197.175781 268.300781 209.824219 C 258.09375 222.6875 247.558594 235.4375 239.691406 249.839844 C 237.738281 253.417969 235.976562 257.085938 234.40625 260.847656 C 233.648438 262.660156 232.976562 264.496094 232.304688 266.347656 C 231.738281 267.941406 231 270.351562 229.292969 271.085938 C 225.714844 272.628906 224.421875 265.648438 224.136719 263.503906 C 223.355469 257.617188 222.847656 251.703125 222.613281 245.761719 C 222.109375 233.871094 222.6875 222.03125 224.34375 210.246094 C 225.816406 199.800781 227.796875 189.066406 231.730469 179.234375 C 233.320312 175.078125 235.488281 171.25 238.238281 167.75 C 239.636719 166.015625 241.207031 164.457031 242.953125 163.078125 C 244.710938 161.699219 246.851562 160.21875 249.054688 159.726562 C 251.257812 159.234375 252.886719 160.441406 253.273438 162.667969 C 253.695312 165.019531 252.351562 167.273438 251.0625 169.101562 C 247.875 173.53125 244.214844 177.527344 240.085938 181.089844 C 236.214844 184.628906 231.925781 187.550781 227.210938 189.851562 C 222.921875 191.839844 217.964844 193.183594 213.234375 192.390625 C 203.09375 190.679688 198.71875 180.191406 199.332031 170.886719 C 199.703125 165.269531 201.5625 159.726562 203.753906 154.574219 C 204.652344 152.429688 205.777344 150.113281 207.6875 148.714844 C 209.175781 147.628906 211.597656 147.011719 213.199219 148.234375 C 214.800781 149.457031 214.757812 152.195312 214.582031 154.082031 C 214.347656 156.257812 213.921875 158.398438 213.300781 160.496094 C 212.101562 164.703125 210.320312 168.648438 207.957031 172.332031 C 205.597656 176.027344 202.789062 179.339844 199.527344 182.273438 C 196.265625 185.203125 192.671875 187.648438 188.746094 189.601562 C 180.878906 193.496094 171.253906 195.449219 162.679688 193.03125 C 158.550781 191.875 154.554688 189.507812 152.429688 185.664062 C 151.496094 184.003906 150.949219 182.226562 150.785156 180.328125 C 150.625 178.429688 150.863281 176.582031 151.5 174.789062 C 151.84375 173.929688 152.3125 173.144531 152.902344 172.433594 C 153.496094 171.722656 154.183594 171.117188 154.964844 170.625 C 155.75 170.128906 156.589844 169.765625 157.484375 169.539062 C 158.382812 169.308594 159.292969 169.222656 160.21875 169.28125 C 161.253906 169.34375 162.269531 169.519531 163.265625 169.796875 C 164.261719 170.078125 165.21875 170.460938 166.136719 170.945312 C 167.050781 171.425781 167.90625 172 168.703125 172.664062 C 169.5 173.328125 170.214844 174.066406 170.851562 174.882812 C 173.941406 178.785156 175.230469 183.894531 175.859375 188.738281 C 176.472656 194.3125 176.757812 199.90625 176.710938 205.515625 C 176.8125 217.242188 175.988281 228.902344 174.234375 240.496094 C 172.515625 251.78125 169.949219 262.875 166.539062 273.773438 C 165.824219 276.015625 169.359375 276.980469 170.058594 274.746094 Z M 170.058594 274.710938 " fill-opacity="1" fill-rule="nonzero"/></g><path fill="#b0626b" d="M 159.417969 289.035156 C 171.117188 288.601562 182.824219 288.695312 194.535156 288.878906 C 200.328125 288.964844 206.121094 289.078125 211.921875 289.15625 L 215.816406 289.199219 L 219.023438 289.199219 C 219.101562 289.199219 219.738281 289.238281 219.480469 289.199219 C 219.671875 289.230469 219.859375 289.277344 220.046875 289.335938 C 220.046875 289.335938 220.601562 289.566406 220.300781 289.421875 C 220.464844 289.5 220.625 289.59375 220.773438 289.695312 C 221.21875 289.988281 220.574219 289.480469 220.960938 289.84375 C 221.394531 290.214844 221.675781 290.675781 221.8125 291.230469 C 221.960938 291.726562 221.972656 292.222656 221.84375 292.722656 C 221.714844 293.222656 221.464844 293.65625 221.097656 294.015625 C 220.871094 294.242188 220.613281 294.417969 220.324219 294.554688 C 219.808594 294.839844 219.265625 295.097656 218.722656 295.351562 C 217.59375 295.886719 216.441406 296.363281 215.265625 296.78125 C 210.519531 298.355469 205.664062 299.457031 200.699219 300.082031 C 194.976562 300.914062 189.253906 301.371094 183.535156 302.035156 C 177.8125 302.699219 171.839844 303.507812 166.710938 306.171875 C 164.566406 307.300781 162.527344 308.9375 161.597656 311.265625 C 161.332031 311.953125 161.175781 312.664062 161.128906 313.398438 C 161.085938 314.132812 161.152344 314.855469 161.335938 315.570312 C 161.515625 316.28125 161.800781 316.953125 162.1875 317.574219 C 162.578125 318.199219 163.054688 318.75 163.613281 319.226562 C 167.113281 322.015625 172.15625 321.714844 176.359375 321.707031 C 182.132812 321.707031 187.894531 321.484375 193.660156 321.515625 C 199.113281 321.484375 204.539062 321.851562 209.9375 322.621094 C 211.800781 322.863281 213.628906 323.257812 215.425781 323.800781 C 216.09375 323.980469 216.71875 324.253906 217.304688 324.621094 C 217.457031 324.707031 217.597656 324.800781 217.742188 324.902344 C 217.433594 324.6875 217.847656 324.996094 217.878906 325.03125 C 217.90625 325.066406 218.097656 325.246094 218.207031 325.367188 C 217.933594 325.050781 218.300781 325.523438 218.351562 325.609375 C 218.601562 326.03125 218.179688 325.265625 218.394531 325.707031 C 218.394531 325.78125 218.507812 326.265625 218.449219 325.816406 C 218.449219 325.953125 218.449219 326.660156 218.449219 326.316406 C 218.292969 327.1875 217.949219 327.972656 217.421875 328.679688 C 217.292969 328.875 217.164062 329.066406 217.027344 329.246094 C 217.328125 328.851562 217.0625 329.203125 216.992188 329.246094 C 216.804688 329.4375 216.625 329.617188 216.433594 329.796875 C 216.367188 329.851562 216.011719 330.132812 216.375 329.851562 C 216.269531 329.9375 216.152344 330.019531 216.039062 330.097656 C 215.757812 330.289062 215.464844 330.464844 215.160156 330.625 C 214.886719 330.773438 214.609375 330.902344 214.332031 331.039062 C 213.851562 331.261719 214.671875 330.902344 214.171875 331.105469 L 213.785156 331.253906 C 213.105469 331.507812 212.410156 331.730469 211.707031 331.910156 C 210.992188 332.105469 210.238281 332.261719 209.503906 332.40625 C 208.765625 332.546875 207.707031 332.703125 207.214844 332.769531 C 200.777344 333.578125 194.242188 333.375 187.769531 333.140625 C 186.757812 333.105469 185.75 333.0625 184.742188 333.046875 C 182.390625 333.003906 182.390625 336.621094 184.742188 336.691406 C 190.730469 336.800781 196.699219 337.164062 202.695312 336.8125 C 206.191406 336.691406 209.636719 336.195312 213.027344 335.328125 C 215.730469 334.570312 218.464844 333.382812 220.179688 331.039062 C 221.269531 329.566406 222.234375 327.652344 222.070312 325.765625 C 221.972656 324.886719 221.683594 324.078125 221.203125 323.339844 C 220.722656 322.601562 220.101562 322.007812 219.335938 321.5625 C 216.097656 319.421875 211.648438 319.128906 207.894531 318.640625 C 196.257812 317.132812 184.511719 318.191406 172.847656 317.992188 C 170.886719 318.058594 168.976562 317.761719 167.125 317.105469 C 166.488281 316.894531 165.953125 316.535156 165.519531 316.019531 C 165.085938 315.503906 164.824219 314.914062 164.730469 314.246094 C 164.730469 314.140625 164.730469 314.582031 164.730469 314.210938 C 164.730469 314.082031 164.730469 313.960938 164.730469 313.832031 C 164.730469 313.703125 164.730469 313.582031 164.730469 313.460938 C 164.730469 313.339844 164.789062 313.054688 164.730469 313.402344 C 164.769531 313.164062 164.820312 312.925781 164.886719 312.6875 C 164.886719 312.582031 164.960938 312.476562 164.996094 312.359375 C 165.082031 312.089844 164.816406 312.660156 164.996094 312.316406 C 165.117188 312.109375 165.21875 311.902344 165.347656 311.703125 C 165.476562 311.503906 165.480469 311.511719 165.554688 311.410156 C 165.625 311.308594 165.453125 311.539062 165.453125 311.539062 C 165.453125 311.539062 165.554688 311.410156 165.609375 311.351562 C 165.78125 311.175781 165.945312 310.988281 166.132812 310.808594 L 166.417969 310.550781 C 166.476562 310.503906 166.828125 310.214844 166.648438 310.359375 C 166.46875 310.503906 166.785156 310.257812 166.839844 310.222656 L 167.183594 309.988281 C 167.464844 309.808594 167.75 309.636719 168.035156 309.472656 C 168.59375 309.167969 169.15625 308.886719 169.738281 308.636719 C 169.445312 308.765625 169.738281 308.636719 169.886719 308.582031 L 170.339844 308.402344 C 170.671875 308.273438 171.007812 308.152344 171.347656 308.039062 C 172.019531 307.816406 172.707031 307.609375 173.390625 307.421875 C 174.824219 307.03125 176.253906 306.707031 177.683594 306.4375 C 178.398438 306.300781 179.15625 306.179688 179.894531 306.058594 L 180.945312 305.902344 L 181.464844 305.828125 L 181.722656 305.792969 C 181.53125 305.792969 181.609375 305.792969 181.722656 305.792969 C 184.242188 305.464844 186.730469 305.230469 189.292969 305.007812 C 192.421875 304.734375 195.550781 304.292969 198.667969 303.898438 C 203.800781 303.324219 208.855469 302.34375 213.828125 300.957031 C 216.289062 300.21875 218.671875 299.292969 220.980469 298.175781 C 222.882812 297.246094 224.421875 296.03125 225.128906 293.980469 C 225.265625 293.5625 225.355469 293.132812 225.402344 292.691406 C 225.449219 292.253906 225.453125 291.8125 225.414062 291.375 C 225.371094 290.933594 225.285156 290.503906 225.15625 290.082031 C 225.027344 289.660156 224.855469 289.253906 224.644531 288.867188 C 224.433594 288.480469 224.1875 288.117188 223.902344 287.78125 C 223.617188 287.441406 223.300781 287.136719 222.953125 286.863281 C 222.605469 286.589844 222.238281 286.355469 221.84375 286.15625 C 221.445312 285.957031 221.035156 285.800781 220.609375 285.683594 C 219.453125 285.484375 218.292969 285.414062 217.121094 285.476562 L 212.691406 285.429688 C 209.675781 285.394531 206.660156 285.347656 203.644531 285.292969 C 191.757812 285.097656 179.863281 284.855469 167.972656 285.0625 C 165.082031 285.109375 162.191406 285.191406 159.300781 285.300781 C 156.964844 285.386719 156.949219 289.035156 159.300781 288.945312 Z M 159.417969 289.035156 " fill-opacity="1" fill-rule="nonzero"/></svg>