<svg xmlns="http://www.w3.org/2000/svg" xmlns:xlink="http://www.w3.org/1999/xlink" width="500" zoomAndPan="magnify" viewBox="0 0 375 374.999991" height="500" preserveAspectRatio="xMidYMid meet" version="1.0"><defs><filter x="0%" y="0%" width="100%" height="100%" id="id1"><feColorMatrix values="0 0 0 0 1 0 0 0 0 1 0 0 0 0 1 0 0 0 1 0" color-interpolation-filters="sRGB"/></filter><mask id="id2"><g filter="url(#id1)"><rect x="-37.5" width="450" fill="#000000" y="-37.499999" height="449.999989" fill-opacity="0.2471"/></g></mask><clipPath id="id3"><path d="M 19 55 L 263 55 L 263 243 L 19 243 Z M 19 55 " clip-rule="nonzero"/></clipPath><clipPath id="id4"><path d="M 309.65625 200.914062 L 57.019531 304.375 L -32.796875 85.054688 L 219.835938 -18.410156 Z M 309.65625 200.914062 " clip-rule="nonzero"/></clipPath><clipPath id="id5"><path d="M 309.65625 200.914062 L 57.019531 304.375 L -32.796875 85.054688 L 219.835938 -18.410156 Z M 309.65625 200.914062 " clip-rule="nonzero"/></clipPath><clipPath id="id6"><rect x="0" width="279" y="0" height="282"/></clipPath><clipPath id="id7"><path d="M 206 19.539062 L 280 19.539062 L 280 139 L 206 139 Z M 206 19.539062 " clip-rule="nonzero"/></clipPath></defs><g mask="url(#id2)"><g transform="matrix(1, 0, 0, 1, 3, 61)"><g clip-path="url(#id6)"><g clip-path="url(#id3)"><g clip-path="url(#id4)"><g clip-path="url(#id5)"><path fill="#f2dedc" d="M 110.050781 236.1875 C 63.871094 219.539062 -22.945312 108.644531 43.210938 65.085938 C 87.945312 35.605469 95.003906 82.703125 156.253906 119.515625 C 176.542969 131.6875 275.886719 118.925781 261.214844 181.769531 C 252.511719 219.007812 170.441406 257.925781 110.050781 236.1875 Z M 110.050781 236.1875 " fill-opacity="1" fill-rule="nonzero"/></g></g></g></g></g></g><path fill="#b0626b" d="M 286.003906 74.90625 C 285.808594 74.75 285.589844 74.640625 285.351562 74.574219 C 285.109375 74.507812 284.867188 74.492188 284.621094 74.523438 C 284.375 74.554688 284.140625 74.636719 283.925781 74.761719 C 283.714844 74.886719 283.53125 75.050781 283.382812 75.25 C 283.234375 75.449219 283.128906 75.671875 283.070312 75.914062 C 283.011719 76.152344 283 76.398438 283.042969 76.644531 C 283.082031 76.890625 283.167969 77.117188 283.296875 77.328125 C 283.429688 77.539062 283.597656 77.71875 283.800781 77.859375 C 320.585938 105.222656 341.988281 147.324219 342.542969 193.367188 C 342.730469 208.644531 340.585938 223.582031 336.109375 238.1875 C 333.277344 241.796875 330.460938 245.414062 327.542969 248.957031 C 324.261719 253.039062 320.769531 256.933594 317.074219 260.648438 C 316.238281 261.46875 315.382812 262.265625 314.507812 263.039062 C 314.085938 263.414062 313.660156 263.78125 313.230469 264.136719 L 312.628906 264.621094 L 312.371094 264.828125 C 312.566406 264.667969 312.316406 264.828125 312.261719 264.90625 C 310.152344 266.503906 307.882812 267.890625 305.714844 269.40625 C 303.347656 270.960938 301.214844 272.796875 299.320312 274.902344 C 297.488281 277.03125 296.203125 279.445312 295.464844 282.152344 C 295.121094 283.445312 294.910156 284.761719 294.832031 286.09375 C 294.753906 287.429688 294.816406 288.761719 295.011719 290.082031 C 295.207031 291.40625 295.539062 292.695312 296 293.953125 C 296.460938 295.207031 297.042969 296.402344 297.75 297.539062 C 298.132812 298.117188 298.550781 298.664062 298.984375 299.207031 C 295.625 302.535156 292.113281 305.691406 288.449219 308.679688 C 284.78125 311.664062 280.980469 314.464844 277.039062 317.078125 C 273.097656 319.691406 269.039062 322.105469 264.863281 324.320312 C 260.6875 326.539062 256.414062 328.546875 252.042969 330.34375 C 247.667969 332.140625 243.21875 333.722656 238.691406 335.085938 C 234.164062 336.449219 229.582031 337.585938 224.941406 338.5 C 220.304688 339.414062 215.632812 340.101562 210.925781 340.558594 C 206.222656 341.015625 201.503906 341.242188 196.777344 341.238281 L 196.527344 341.238281 C 191.851562 341.257812 187.1875 341.050781 182.53125 340.617188 C 177.878906 340.183594 173.253906 339.527344 168.664062 338.648438 C 164.074219 337.769531 159.535156 336.671875 155.050781 335.355469 C 150.5625 334.039062 146.152344 332.507812 141.816406 330.761719 C 137.476562 329.019531 133.234375 327.070312 129.085938 324.917969 C 124.9375 322.765625 120.898438 320.414062 116.976562 317.871094 C 113.054688 315.328125 109.265625 312.601562 105.605469 309.691406 C 101.945312 306.78125 98.433594 303.703125 95.074219 300.457031 C 96.179688 298.523438 97.03125 296.484375 97.625 294.339844 C 98.222656 292.195312 98.542969 290.007812 98.589844 287.78125 C 98.636719 285.554688 98.40625 283.359375 97.902344 281.191406 C 97.398438 279.019531 96.632812 276.949219 95.605469 274.972656 C 93.558594 271.058594 90.328125 268.117188 87.285156 265.027344 C 86.523438 264.265625 85.832031 263.503906 85.160156 262.742188 L 84.695312 262.179688 L 84.648438 262.125 C 84.582031 262.046875 84.519531 261.949219 84.460938 261.867188 C 84.164062 261.46875 83.882812 261.058594 83.621094 260.632812 C 83.371094 260.234375 83.144531 259.828125 82.9375 259.40625 L 82.777344 259.054688 C 82.6875 258.820312 82.601562 258.582031 82.519531 258.339844 C 82.375 257.894531 82.257812 257.445312 82.175781 256.984375 C 82.175781 256.894531 82.128906 256.769531 82.121094 256.664062 L 82.121094 256.574219 C 82.121094 256.320312 82.121094 256.078125 82.078125 255.8125 C 82.078125 255.414062 82.078125 255.050781 82.128906 254.628906 C 82.128906 254.628906 82.128906 254.667969 82.128906 254.691406 C 82.15625 254.585938 82.171875 254.480469 82.183594 254.371094 C 82.183594 254.167969 82.257812 253.960938 82.3125 253.753906 C 82.402344 253.375 82.511719 253.003906 82.640625 252.636719 C 82.707031 252.4375 82.785156 252.246094 82.851562 252.050781 L 82.96875 251.789062 C 83.695312 250.246094 84.578125 248.800781 85.617188 247.449219 C 85.6875 247.359375 85.761719 247.265625 85.824219 247.175781 L 86.1875 246.710938 L 87.070312 245.628906 C 87.632812 244.9375 88.207031 244.257812 88.761719 243.566406 C 89.957031 242.140625 91.050781 240.644531 92.042969 239.070312 C 93.992188 235.835938 94.980469 231.964844 93.777344 228.273438 C 92.355469 223.9375 88.585938 220.824219 84.597656 218.890625 C 79.859375 216.703125 74.886719 215.488281 69.675781 215.242188 C 64.382812 214.914062 59.195312 215.515625 54.117188 217.046875 C 53.457031 217.246094 52.808594 217.464844 52.171875 217.695312 C 51.082031 210.566406 50.511719 203.398438 50.464844 196.1875 C 50.390625 187.679688 51.058594 179.234375 52.464844 170.84375 C 53.871094 162.453125 55.996094 154.25 58.839844 146.234375 C 59.246094 145.125 59.777344 144.074219 60.4375 143.09375 C 61.09375 142.109375 61.859375 141.21875 62.734375 140.417969 C 63.605469 139.617188 64.558594 138.933594 65.597656 138.367188 C 66.632812 137.796875 67.722656 137.355469 68.867188 137.050781 C 75.050781 135.320312 79.703125 135.304688 81.949219 137.050781 C 83.1875 137.988281 83.789062 139.523438 83.789062 141.734375 C 83.789062 148.96875 80.46875 155.90625 76.9375 163.257812 C 73.40625 170.605469 69.742188 178.296875 69.742188 186.371094 C 69.742188 190.757812 70.167969 195.425781 73.328125 196.734375 C 77.667969 198.53125 83.730469 193.460938 100.9375 176.25 C 110.894531 166.289062 120.527344 164.0625 128.261719 162.242188 C 137.101562 160.1875 144.738281 158.433594 147.335938 146.144531 C 149.6875 135 145.644531 124.277344 142.082031 114.8125 C 138.640625 105.671875 135.394531 97.089844 138.320312 89.679688 C 141.539062 81.515625 145.09375 78.109375 148.140625 75.847656 C 148.929688 75.28125 149.667969 74.652344 150.355469 73.96875 C 151.042969 73.28125 151.671875 72.546875 152.246094 71.757812 C 152.816406 70.972656 153.320312 70.148438 153.761719 69.28125 C 154.203125 68.414062 154.570312 67.519531 154.871094 66.59375 C 155.167969 65.667969 155.390625 64.726562 155.539062 63.765625 C 155.6875 62.804688 155.757812 61.839844 155.753906 60.867188 C 155.75 59.894531 155.667969 58.929688 155.507812 57.972656 C 155.351562 57.011719 155.117188 56.070312 154.8125 55.148438 C 167.363281 51.425781 180.183594 49.421875 193.273438 49.140625 L 193.320312 49.140625 C 194.84375 49.140625 196.289062 49.09375 197.773438 49.140625 C 198.019531 49.140625 198.253906 49.09375 198.480469 49 C 198.707031 48.90625 198.90625 48.773438 199.078125 48.601562 C 199.25 48.429688 199.382812 48.230469 199.476562 48.003906 C 199.570312 47.777344 199.617188 47.542969 199.617188 47.296875 C 199.617188 47.054688 199.570312 46.816406 199.476562 46.59375 C 199.382812 46.367188 199.25 46.167969 199.078125 45.996094 C 198.90625 45.820312 198.707031 45.6875 198.480469 45.59375 C 198.253906 45.5 198.019531 45.453125 197.773438 45.453125 L 196.144531 45.453125 C 191.035156 45.457031 185.9375 45.722656 180.855469 46.246094 C 175.773438 46.773438 170.730469 47.554688 165.726562 48.597656 C 160.726562 49.640625 155.789062 50.933594 150.917969 52.480469 C 146.046875 54.027344 141.269531 55.820312 136.582031 57.859375 C 131.894531 59.894531 127.324219 62.167969 122.871094 64.671875 C 118.417969 67.175781 114.101562 69.902344 109.925781 72.851562 C 105.75 75.796875 101.738281 78.949219 97.886719 82.308594 C 94.035156 85.667969 90.363281 89.210938 86.875 92.945312 C 86.703125 93.125 86.574219 93.328125 86.484375 93.558594 C 86.398438 93.789062 86.355469 94.027344 86.363281 94.273438 C 86.371094 94.519531 86.425781 94.753906 86.527344 94.980469 C 86.628906 95.203125 86.769531 95.402344 86.949219 95.570312 C 87.128906 95.738281 87.335938 95.863281 87.566406 95.949219 C 87.796875 96.035156 88.035156 96.074219 88.28125 96.0625 C 88.527344 96.050781 88.761719 95.996094 88.984375 95.890625 C 89.207031 95.785156 89.402344 95.644531 89.570312 95.460938 C 93.773438 90.949219 98.25 86.726562 102.992188 82.785156 C 107.734375 78.839844 112.703125 75.214844 117.90625 71.902344 C 123.105469 68.59375 128.496094 65.621094 134.074219 62.996094 C 139.652344 60.367188 145.375 58.101562 151.238281 56.199219 C 151.492188 56.941406 151.683594 57.695312 151.8125 58.46875 C 151.945312 59.238281 152.015625 60.015625 152.019531 60.796875 C 152.027344 61.578125 151.972656 62.359375 151.855469 63.128906 C 151.738281 63.902344 151.5625 64.664062 151.324219 65.40625 C 151.085938 66.152344 150.789062 66.875 150.433594 67.570312 C 150.082031 68.269531 149.675781 68.933594 149.214844 69.566406 C 148.753906 70.199219 148.25 70.792969 147.695312 71.34375 C 147.140625 71.894531 146.546875 72.398438 145.910156 72.855469 C 142.445312 75.421875 138.425781 79.261719 134.855469 88.292969 C 131.414062 97.019531 134.902344 106.28125 138.59375 116.074219 C 142.148438 125.503906 145.828125 135.253906 143.695312 145.34375 C 141.585938 155.304688 136.242188 156.554688 127.394531 158.609375 C 119.203125 160.523438 109 162.890625 98.300781 173.597656 C 90.003906 181.890625 77.476562 194.414062 74.699219 193.285156 C 74.476562 193.195312 73.390625 192.433594 73.390625 186.332031 C 73.390625 179.097656 76.710938 172.160156 80.242188 164.808594 C 83.773438 157.460938 87.445312 149.769531 87.445312 141.695312 C 87.445312 138.300781 86.332031 135.734375 84.148438 134.078125 C 80.867188 131.589844 75.375 131.390625 67.839844 133.5 C 66.414062 133.894531 65.058594 134.449219 63.769531 135.167969 C 62.480469 135.886719 61.292969 136.746094 60.207031 137.75 C 59.125 138.753906 58.175781 139.871094 57.359375 141.101562 C 56.542969 142.332031 55.882812 143.640625 55.382812 145.03125 C 54.378906 147.84375 53.460938 150.683594 52.625 153.550781 C 51.789062 156.417969 51.042969 159.308594 50.382812 162.21875 C 49.722656 165.128906 49.148438 168.058594 48.660156 171.007812 C 48.175781 173.953125 47.777344 176.910156 47.46875 179.878906 C 47.160156 182.851562 46.941406 185.828125 46.8125 188.8125 C 46.679688 191.792969 46.640625 194.777344 46.6875 197.765625 C 46.734375 200.75 46.871094 203.730469 47.097656 206.710938 C 47.328125 209.6875 47.640625 212.65625 48.046875 215.613281 C 48.449219 218.570312 48.941406 221.515625 49.523438 224.445312 C 50.105469 227.375 50.773438 230.28125 51.527344 233.171875 C 52.28125 236.0625 53.121094 238.925781 54.050781 241.761719 C 54.976562 244.601562 55.984375 247.410156 57.082031 250.1875 C 58.175781 252.96875 59.351562 255.710938 60.609375 258.417969 C 61.867188 261.125 63.207031 263.792969 64.625 266.421875 C 66.042969 269.046875 67.539062 271.628906 69.113281 274.167969 C 70.6875 276.707031 72.335938 279.195312 74.054688 281.632812 C 75.777344 284.074219 77.570312 286.457031 79.4375 288.789062 C 81.300781 291.121094 83.234375 293.394531 85.234375 295.613281 C 87.238281 297.828125 89.300781 299.980469 91.433594 302.074219 C 93.5625 304.164062 95.753906 306.191406 98.003906 308.152344 C 100.257812 310.113281 102.5625 312.007812 104.929688 313.828125 C 107.292969 315.652344 109.710938 317.402344 112.179688 319.078125 C 114.648438 320.757812 117.167969 322.359375 119.730469 323.886719 C 122.296875 325.414062 124.90625 326.863281 127.558594 328.234375 C 130.210938 329.605469 132.902344 330.894531 135.632812 332.105469 C 138.359375 333.3125 141.125 334.441406 143.921875 335.484375 C 146.71875 336.527344 149.542969 337.488281 152.398438 338.363281 C 155.25 339.238281 158.128906 340.027344 161.03125 340.726562 C 163.933594 341.429688 166.851562 342.046875 169.789062 342.574219 C 172.730469 343.101562 175.679688 343.539062 178.644531 343.890625 C 181.609375 344.242188 184.582031 344.5 187.5625 344.675781 C 190.542969 344.847656 193.527344 344.929688 196.511719 344.921875 L 196.777344 344.921875 C 199.246094 344.917969 201.710938 344.855469 204.171875 344.726562 C 206.636719 344.601562 209.09375 344.414062 211.550781 344.167969 C 214.003906 343.917969 216.449219 343.609375 218.890625 343.242188 C 221.328125 342.875 223.757812 342.445312 226.175781 341.957031 C 228.59375 341.46875 230.996094 340.917969 233.386719 340.3125 C 235.777344 339.703125 238.152344 339.039062 240.511719 338.3125 C 242.871094 337.585938 245.207031 336.804688 247.527344 335.964844 C 249.847656 335.125 252.144531 334.226562 254.417969 333.273438 C 256.691406 332.316406 258.941406 331.308594 261.167969 330.242188 C 263.394531 329.175781 265.589844 328.058594 267.761719 326.882812 C 269.929688 325.707031 272.070312 324.480469 274.179688 323.203125 C 276.285156 321.921875 278.363281 320.589844 280.40625 319.207031 C 282.449219 317.828125 284.457031 316.394531 286.429688 314.914062 C 288.402344 313.429688 290.335938 311.902344 292.234375 310.324219 C 294.128906 308.746094 295.988281 307.121094 297.804688 305.453125 C 299.621094 303.785156 301.394531 302.070312 303.128906 300.316406 C 304.859375 298.558594 306.546875 296.757812 308.191406 294.917969 C 309.832031 293.078125 311.429688 291.199219 312.980469 289.28125 C 314.53125 287.359375 316.03125 285.402344 317.488281 283.410156 C 318.941406 281.417969 320.34375 279.390625 321.695312 277.324219 C 323.050781 275.261719 324.351562 273.167969 325.601562 271.039062 C 326.851562 268.914062 328.046875 266.757812 329.191406 264.570312 C 330.335938 262.382812 331.421875 260.171875 332.457031 257.929688 C 333.492188 255.691406 334.46875 253.425781 335.390625 251.136719 C 336.3125 248.847656 337.179688 246.539062 337.988281 244.207031 C 338.792969 241.875 339.542969 239.527344 340.238281 237.15625 C 340.929688 234.789062 341.5625 232.40625 342.136719 230.003906 C 342.710938 227.605469 343.222656 225.191406 343.679688 222.769531 C 344.132812 220.34375 344.527344 217.90625 344.863281 215.464844 C 345.199219 213.019531 345.472656 210.566406 345.683594 208.109375 C 345.898438 205.652344 346.050781 203.1875 346.144531 200.722656 C 346.234375 198.257812 346.265625 195.789062 346.234375 193.324219 C 345.664062 146.121094 323.714844 102.953125 286.003906 74.90625 Z M 52.792969 221.433594 C 54.75 220.707031 56.746094 220.132812 58.785156 219.703125 C 59.386719 219.582031 59.996094 219.46875 60.605469 219.371094 L 61.566406 219.226562 L 61.617188 219.226562 L 62.289062 219.140625 C 63.515625 219.011719 64.746094 218.929688 65.988281 218.898438 C 67.230469 218.867188 68.570312 218.898438 69.863281 218.980469 C 70.480469 219.019531 71.089844 219.074219 71.707031 219.140625 L 72.421875 219.226562 L 72.71875 219.269531 L 73.222656 219.347656 C 75.703125 219.730469 78.132812 220.339844 80.5 221.175781 L 81.261719 221.464844 L 81.636719 221.617188 C 82.136719 221.820312 82.632812 222.058594 83.113281 222.300781 C 84.035156 222.761719 84.921875 223.285156 85.769531 223.871094 C 85.96875 224.015625 86.1875 224.152344 86.378906 224.3125 L 86.699219 224.570312 C 87.117188 224.921875 87.519531 225.285156 87.902344 225.675781 C 88.21875 225.980469 88.515625 226.308594 88.785156 226.65625 C 88.738281 226.597656 88.707031 226.566406 88.785156 226.726562 L 89.011719 227.046875 C 89.15625 227.257812 89.300781 227.480469 89.429688 227.707031 C 89.566406 227.929688 89.691406 228.160156 89.804688 228.394531 C 89.847656 228.472656 89.886719 228.550781 89.917969 228.628906 C 89.921875 228.652344 89.921875 228.671875 89.917969 228.691406 C 90.152344 229.15625 90.300781 229.644531 90.367188 230.160156 C 90.429688 230.355469 90.472656 230.550781 90.488281 230.753906 L 90.488281 230.863281 C 90.496094 230.960938 90.496094 231.058594 90.488281 231.160156 C 90.519531 231.574219 90.519531 231.988281 90.488281 232.398438 C 90.488281 232.566406 90.34375 233.277344 90.488281 232.644531 C 90.453125 232.820312 90.4375 232.996094 90.398438 233.160156 C 90.351562 233.570312 90.28125 233.976562 90.183594 234.378906 C 90.078125 234.714844 89.949219 235.035156 89.828125 235.363281 L 89.714844 235.613281 L 89.425781 236.191406 C 89.03125 236.9375 88.597656 237.65625 88.121094 238.347656 C 87.902344 238.675781 87.671875 238.996094 87.4375 239.316406 C 87.316406 239.484375 87.191406 239.648438 87.0625 239.808594 C 86.988281 239.894531 86.925781 239.992188 86.851562 240.085938 C 85.777344 241.449219 84.648438 242.773438 83.5625 244.128906 C 81.382812 246.855469 79.175781 249.863281 78.558594 253.382812 C 78.175781 255.425781 78.304688 257.4375 78.949219 259.414062 C 79.699219 261.46875 80.785156 263.324219 82.214844 264.980469 C 83.546875 266.546875 84.960938 268.039062 86.445312 269.457031 C 87.207031 270.21875 87.925781 270.921875 88.632812 271.675781 C 88.960938 272.023438 89.28125 272.375 89.589844 272.734375 L 90.109375 273.351562 L 90.285156 273.5625 L 90.414062 273.722656 C 91.046875 274.574219 91.621094 275.460938 92.132812 276.390625 C 92.371094 276.816406 92.589844 277.257812 92.804688 277.699219 C 92.910156 277.933594 93.019531 278.164062 93.117188 278.398438 L 93.320312 278.925781 C 93.695312 279.921875 94.007812 280.9375 94.25 281.972656 C 94.359375 282.453125 94.457031 282.9375 94.546875 283.425781 C 94.546875 283.664062 94.640625 283.914062 94.664062 284.1875 C 94.664062 284.378906 94.699219 284.5625 94.722656 284.75 C 94.824219 285.78125 94.867188 286.816406 94.84375 287.851562 C 94.84375 288.367188 94.808594 288.886719 94.761719 289.375 C 94.761719 289.65625 94.707031 289.9375 94.675781 290.21875 C 94.675781 290.21875 94.675781 290.417969 94.675781 290.472656 C 94.675781 290.523438 94.675781 290.628906 94.640625 290.707031 C 94.480469 291.738281 94.253906 292.753906 93.960938 293.753906 C 93.816406 294.25 93.65625 294.734375 93.480469 295.222656 L 93.175781 295.984375 L 92.972656 296.449219 C 92.765625 296.882812 92.554688 297.300781 92.324219 297.722656 C 87.207031 292.539062 82.503906 287.003906 78.222656 281.113281 C 73.9375 275.222656 70.121094 269.046875 66.769531 262.578125 C 63.417969 256.113281 60.570312 249.429688 58.230469 242.535156 C 55.886719 235.636719 54.074219 228.605469 52.792969 221.433594 Z M 298.632812 284.957031 Z M 299.675781 293.296875 L 299.730469 293.425781 C 299.703125 293.378906 299.6875 293.332031 299.675781 293.28125 Z M 301.597656 296.601562 L 301.351562 296.265625 C 301.175781 296.023438 301.007812 295.769531 300.847656 295.503906 C 300.523438 294.996094 300.230469 294.464844 299.964844 293.921875 L 299.761719 293.480469 C 299.640625 293.175781 299.523438 292.871094 299.417969 292.566406 C 299.222656 291.992188 299.054688 291.410156 298.914062 290.820312 C 298.855469 290.546875 298.800781 290.273438 298.75 290 C 298.75 289.839844 298.695312 289.6875 298.671875 289.527344 C 298.648438 289.367188 298.671875 289.40625 298.671875 289.382812 C 298.605469 288.78125 298.566406 288.171875 298.550781 287.5625 C 298.535156 286.953125 298.550781 286.351562 298.609375 285.75 C 298.609375 285.589844 298.609375 285.421875 298.664062 285.261719 L 298.664062 285.191406 C 298.753906 284.878906 298.808594 284.558594 298.824219 284.234375 C 298.945312 283.640625 299.097656 283.054688 299.273438 282.472656 C 299.355469 282.214844 299.449219 281.949219 299.546875 281.710938 C 299.648438 281.476562 299.667969 281.40625 299.722656 281.253906 C 299.777344 281.101562 299.667969 281.371094 299.667969 281.371094 C 299.699219 281.28125 299.734375 281.199219 299.785156 281.117188 C 300.03125 280.566406 300.3125 280.03125 300.621094 279.511719 C 300.773438 279.253906 300.941406 278.992188 301.109375 278.75 L 301.367188 278.382812 L 301.550781 278.132812 C 302.363281 277.109375 303.261719 276.167969 304.246094 275.308594 C 304.738281 274.875 305.25 274.453125 305.769531 274.042969 L 305.875 273.960938 L 306.300781 273.640625 L 307.109375 273.054688 C 309.285156 271.53125 311.554688 270.105469 313.710938 268.539062 C 315.546875 267.175781 317.289062 265.703125 318.941406 264.121094 C 322.566406 260.585938 325.980469 256.859375 329.179688 252.933594 C 330.300781 251.59375 331.394531 250.230469 332.492188 248.875 C 328.960938 257.761719 324.59375 266.222656 319.394531 274.253906 C 314.195312 282.28125 308.261719 289.726562 301.597656 296.585938 Z M 301.597656 296.601562 " fill-opacity="1" fill-rule="nonzero"/><path fill="#b0626b" d="M 191.289062 162.570312 C 191.816406 164.207031 192.625 165.691406 193.710938 167.023438 C 194.796875 168.355469 196.089844 169.445312 197.585938 170.292969 C 199.269531 171.1875 201.0625 171.71875 202.964844 171.890625 C 204.863281 172.0625 206.722656 171.859375 208.539062 171.285156 C 212.097656 170.195312 215.265625 168.417969 218.050781 165.953125 C 218.675781 166.613281 219.320312 167.269531 219.992188 167.894531 C 221.371094 169.253906 222.914062 170.398438 224.613281 171.328125 C 226.316406 172.253906 228.113281 172.929688 230.003906 173.355469 C 234.238281 174.191406 238.53125 173.75 242.796875 173.453125 C 246.652344 173.121094 250.488281 173.28125 254.308594 173.933594 C 261.675781 175.34375 268.542969 178.800781 273.464844 184.527344 C 274.632812 185.867188 275.660156 187.3125 276.546875 188.855469 C 277.433594 190.402344 278.160156 192.015625 278.726562 193.703125 C 279.292969 195.390625 279.6875 197.121094 279.914062 198.886719 C 280.136719 200.652344 280.1875 202.421875 280.0625 204.199219 C 279.914062 205.839844 279.589844 207.445312 279.097656 209.019531 C 278.640625 210.550781 278.023438 212.019531 277.253906 213.421875 C 275.675781 216.375 273.664062 218.996094 271.222656 221.289062 C 268.761719 223.671875 266.039062 225.699219 263.054688 227.382812 C 259.875 229.195312 256.535156 230.625 253.027344 231.675781 C 244.757812 234.242188 236.117188 235.1875 227.542969 236.191406 C 219.519531 237.128906 211.464844 238.148438 203.714844 240.527344 C 196.320312 242.8125 189.210938 246.300781 183.597656 251.707031 C 177.742188 257.34375 173.9375 264.746094 167.945312 270.25 C 165.328125 272.785156 162.28125 274.601562 158.808594 275.695312 C 157.117188 276.207031 155.390625 276.378906 153.628906 276.207031 C 153.476562 276.203125 153.324219 276.1875 153.171875 276.160156 L 152.550781 276.039062 C 152.101562 275.9375 151.664062 275.808594 151.230469 275.648438 C 150.558594 275.367188 149.949219 274.980469 149.414062 274.484375 C 149.144531 274.242188 148.917969 273.964844 148.734375 273.65625 C 148.550781 273.355469 148.382812 273.042969 148.238281 272.71875 C 148.078125 272.300781 147.953125 271.871094 147.859375 271.429688 C 147.773438 271.082031 147.71875 270.726562 147.691406 270.363281 C 147.613281 269.472656 147.613281 268.582031 147.691406 267.691406 C 147.691406 267.5 147.730469 267.3125 147.753906 267.121094 C 147.753906 267.066406 147.753906 266.863281 147.804688 266.800781 C 147.867188 266.414062 147.941406 266.039062 148.035156 265.644531 C 148.203125 264.871094 148.417969 264.109375 148.675781 263.359375 C 148.804688 262.992188 148.941406 262.597656 149.085938 262.269531 C 149.085938 262.230469 149.085938 262.191406 149.085938 262.15625 L 149.136719 262.046875 C 149.222656 261.859375 149.304688 261.660156 149.398438 261.46875 C 150.070312 260.042969 150.84375 258.679688 151.726562 257.371094 C 152.167969 256.703125 152.632812 256.046875 153.121094 255.40625 C 153.523438 254.859375 153.882812 254.378906 154.453125 253.703125 C 155.496094 252.414062 156.585938 251.164062 157.6875 249.894531 C 159.902344 247.378906 162.171875 244.90625 164.242188 242.277344 C 166.539062 239.539062 168.410156 236.535156 169.863281 233.265625 C 171.3125 230 172.285156 226.597656 172.777344 223.054688 C 173.929688 215.691406 173.585938 208.226562 173.296875 200.808594 C 173.152344 197.109375 173.023438 193.40625 173.097656 189.707031 C 173.144531 187.886719 173.226562 186.074219 173.402344 184.261719 C 173.558594 182.570312 173.8125 180.894531 174.164062 179.234375 C 174.800781 175.902344 175.894531 172.726562 177.445312 169.707031 C 177.5625 169.492188 177.636719 169.265625 177.664062 169.023438 C 177.695312 168.785156 177.679688 168.546875 177.617188 168.3125 C 177.554688 168.074219 177.453125 167.859375 177.308594 167.664062 C 177.164062 167.46875 176.988281 167.308594 176.785156 167.179688 C 176.570312 167.058594 176.34375 166.980469 176.105469 166.949219 C 175.863281 166.917969 175.625 166.933594 175.390625 166.996094 C 175.152344 167.058594 174.9375 167.164062 174.742188 167.308594 C 174.550781 167.453125 174.390625 167.632812 174.265625 167.839844 C 170.691406 174.648438 169.589844 182.3125 169.4375 189.925781 C 169.285156 197.542969 170.015625 205.160156 169.925781 212.773438 C 169.941406 216.449219 169.640625 220.097656 169.019531 223.71875 C 168.378906 227.261719 167.226562 230.625 165.5625 233.816406 C 162.347656 239.832031 157.511719 244.441406 153.042969 249.703125 C 148.574219 254.964844 144.601562 260.785156 143.992188 267.835938 C 143.648438 271.878906 144.84375 276.265625 148.558594 278.40625 C 152.09375 280.441406 156.707031 280.234375 160.476562 279 C 168.5625 276.359375 173.921875 269.558594 178.839844 263.007812 C 181.253906 259.578125 183.972656 256.410156 186.992188 253.503906 C 189.84375 250.96875 192.992188 248.878906 196.433594 247.234375 C 203.289062 243.863281 211.175781 242.09375 218.84375 240.945312 C 227.703125 239.621094 236.671875 239.035156 245.488281 237.304688 C 253.460938 235.734375 261.320312 233.160156 268.066406 228.53125 C 274.15625 224.378906 279.242188 218.8125 281.960938 211.914062 C 284.839844 204.609375 284.191406 196.5 280.949219 189.4375 C 280.097656 187.652344 279.097656 185.957031 277.949219 184.347656 C 276.796875 182.738281 275.515625 181.242188 274.097656 179.863281 C 272.683594 178.484375 271.15625 177.238281 269.515625 176.128906 C 267.878906 175.019531 266.15625 174.066406 264.347656 173.261719 C 260.523438 171.546875 256.53125 170.429688 252.371094 169.914062 C 248.222656 169.378906 244.121094 169.660156 239.960938 169.957031 C 237.785156 170.144531 235.605469 170.1875 233.421875 170.085938 C 232.4375 170.035156 231.464844 169.902344 230.507812 169.683594 C 230.042969 169.585938 229.585938 169.464844 229.128906 169.316406 L 228.367188 169.050781 L 227.855469 168.847656 C 225.125 167.535156 222.769531 165.734375 220.785156 163.445312 C 223.113281 161.160156 225.296875 158.726562 227.53125 156.433594 C 230.078125 153.636719 233.019531 151.351562 236.363281 149.578125 C 236.570312 149.453125 236.746094 149.292969 236.894531 149.097656 C 237.039062 148.902344 237.144531 148.6875 237.207031 148.453125 C 237.265625 148.21875 237.28125 147.980469 237.25 147.738281 C 237.21875 147.496094 237.144531 147.269531 237.023438 147.058594 C 236.894531 146.851562 236.734375 146.671875 236.539062 146.527344 C 236.34375 146.382812 236.128906 146.28125 235.894531 146.21875 C 235.65625 146.15625 235.417969 146.140625 235.175781 146.171875 C 234.9375 146.203125 234.707031 146.277344 234.496094 146.394531 C 227.871094 149.683594 223.523438 155.746094 218.339844 160.789062 C 216.394531 158.421875 214.230469 156.28125 211.84375 154.359375 C 209.070312 152.3125 205.972656 151.082031 202.546875 150.675781 C 200.9375 150.429688 199.347656 150.542969 197.785156 151.007812 C 196.222656 151.476562 194.832031 152.253906 193.617188 153.339844 C 193.019531 153.929688 192.511719 154.585938 192.089844 155.316406 C 191.671875 156.042969 191.363281 156.8125 191.15625 157.628906 C 190.949219 158.441406 190.859375 159.269531 190.882812 160.109375 C 190.902344 160.949219 191.039062 161.769531 191.289062 162.570312 Z M 196.3125 164.382812 C 196.160156 164.199219 196.28125 164.351562 196.3125 164.382812 Z M 194.914062 157.78125 Z M 194.585938 159.015625 C 194.585938 159.121094 194.585938 159.128906 194.585938 159.015625 Z M 194.585938 159.203125 C 194.589844 159.136719 194.589844 159.066406 194.585938 159 C 194.652344 158.679688 194.722656 158.367188 194.820312 158.054688 C 194.820312 157.964844 194.890625 157.871094 194.917969 157.773438 C 194.949219 157.671875 195.078125 157.445312 195.171875 157.277344 L 195.4375 156.835938 L 195.613281 156.59375 C 195.828125 156.320312 196.066406 156.066406 196.320312 155.832031 C 196.40625 155.753906 196.496094 155.671875 196.59375 155.59375 L 196.808594 155.433594 C 197.109375 155.234375 197.425781 155.054688 197.753906 154.894531 C 197.820312 154.894531 197.957031 154.800781 197.996094 154.789062 L 198.324219 154.671875 C 198.675781 154.558594 199.035156 154.464844 199.398438 154.390625 L 199.746094 154.332031 L 200.019531 154.332031 C 200.40625 154.292969 200.792969 154.28125 201.179688 154.292969 C 201.511719 154.292969 201.847656 154.292969 202.183594 154.34375 L 202.488281 154.34375 L 203.058594 154.445312 C 203.8125 154.589844 204.550781 154.785156 205.273438 155.03125 C 205.59375 155.136719 205.898438 155.25 206.210938 155.382812 L 206.585938 155.542969 L 207.15625 155.808594 C 207.847656 156.15625 208.515625 156.546875 209.164062 156.972656 C 209.4375 157.15625 209.707031 157.347656 209.972656 157.542969 L 210.269531 157.78125 L 210.726562 158.175781 C 211.386719 158.769531 212.027344 159.394531 212.644531 160.042969 C 213.648438 161.078125 214.617188 162.160156 215.574219 163.242188 C 213.292969 165.21875 210.722656 166.6875 207.863281 167.652344 C 206.164062 168.183594 204.425781 168.375 202.648438 168.222656 L 202.441406 168.222656 L 201.933594 168.121094 C 201.53125 168.03125 201.136719 167.914062 200.75 167.773438 L 200.460938 167.664062 L 200.066406 167.484375 C 199.695312 167.300781 199.335938 167.097656 198.984375 166.875 C 198.703125 166.699219 198.429688 166.507812 198.164062 166.308594 C 198.109375 166.257812 197.90625 166.089844 197.867188 166.058594 C 197.707031 165.921875 197.554688 165.785156 197.410156 165.640625 C 197.140625 165.398438 196.886719 165.144531 196.648438 164.878906 C 196.519531 164.734375 196.398438 164.582031 196.273438 164.429688 L 196.070312 164.15625 C 195.878906 163.867188 195.6875 163.574219 195.519531 163.277344 C 195.421875 163.105469 195.332031 162.929688 195.238281 162.753906 C 195.238281 162.691406 195.125 162.496094 195.085938 162.425781 C 194.839844 161.8125 194.664062 161.175781 194.554688 160.523438 C 194.554688 160.460938 194.554688 160.355469 194.554688 160.285156 C 194.554688 160.21875 194.554688 159.964844 194.554688 159.804688 C 194.554688 159.644531 194.5625 159.386719 194.570312 159.203125 Z M 194.585938 159.203125 " fill-opacity="1" fill-rule="nonzero"/><path fill="#b0626b" d="M 260.648438 310.941406 C 261.128906 310.941406 261.609375 310.941406 262.082031 310.941406 C 262.472656 310.929688 262.863281 310.953125 263.253906 311.019531 L 263.367188 311.019531 L 263.617188 311.0625 C 263.871094 311.117188 264.113281 311.179688 264.378906 311.246094 C 264.578125 311.296875 264.773438 311.363281 264.964844 311.4375 L 265.042969 311.4375 L 265.195312 311.503906 C 265.371094 311.589844 265.546875 311.683594 265.710938 311.789062 L 265.957031 311.949219 C 266.101562 312.070312 266.242188 312.203125 266.375 312.34375 L 266.527344 312.511719 C 266.625 312.664062 266.726562 312.808594 266.808594 312.96875 C 266.890625 313.128906 266.898438 313.136719 266.9375 313.21875 C 266.941406 313.238281 266.941406 313.253906 266.9375 313.273438 C 267.007812 313.507812 267.121094 313.71875 267.273438 313.910156 C 267.425781 314.097656 267.609375 314.253906 267.820312 314.375 C 268.035156 314.496094 268.261719 314.570312 268.503906 314.601562 C 268.746094 314.632812 268.984375 314.621094 269.222656 314.558594 C 269.457031 314.492188 269.671875 314.382812 269.863281 314.230469 C 270.058594 314.078125 270.214844 313.894531 270.335938 313.679688 C 270.453125 313.46875 270.53125 313.238281 270.558594 312.996094 C 270.589844 312.75 270.574219 312.511719 270.507812 312.273438 C 270.136719 311.246094 269.5625 310.34375 268.789062 309.570312 C 268.011719 308.796875 267.109375 308.226562 266.078125 307.859375 C 264.175781 307.195312 262.222656 306.976562 260.222656 307.195312 C 258.1875 307.445312 256.183594 307.84375 254.207031 308.382812 C 253.726562 308.488281 253.25 308.597656 252.761719 308.679688 C 252.523438 308.726562 252.28125 308.773438 252.039062 308.800781 L 251.75 308.847656 L 251.503906 308.847656 C 250.527344 309 249.542969 309.058594 248.550781 309.015625 L 248.238281 309.015625 C 248.019531 308.976562 247.804688 308.925781 247.589844 308.871094 C 247.378906 308.816406 247.171875 308.75 246.96875 308.671875 L 246.851562 308.625 L 246.761719 308.625 L 246.59375 308.527344 C 246.402344 308.429688 246.230469 308.308594 246.046875 308.199219 L 245.847656 308.03125 C 245.6875 307.878906 245.542969 307.714844 245.390625 307.5625 L 245.132812 307.15625 C 245.046875 307.011719 244.972656 306.859375 244.894531 306.707031 L 244.894531 306.660156 C 244.78125 306.382812 244.6875 306.101562 244.613281 305.808594 C 244.453125 305.238281 244.339844 304.644531 244.234375 304.058594 C 244.074219 302.910156 243.820312 301.78125 243.472656 300.675781 C 242.738281 298.722656 241.640625 297.003906 240.183594 295.511719 C 238.726562 294.019531 237.03125 292.882812 235.097656 292.101562 C 233.121094 291.246094 231.0625 290.726562 228.917969 290.539062 C 226.773438 290.355469 224.65625 290.515625 222.566406 291.019531 C 217.683594 292.214844 213.382812 295.015625 209.621094 298.316406 C 206.011719 301.5 203.011719 305.230469 199.832031 308.816406 C 198.265625 310.609375 196.589844 312.289062 194.804688 313.859375 L 194.167969 314.390625 L 193.824219 314.667969 L 193.746094 314.71875 C 193.261719 315.085938 192.757812 315.480469 192.222656 315.777344 C 191.21875 316.433594 190.164062 317.003906 189.066406 317.484375 L 189.011719 317.484375 L 188.90625 317.523438 L 188.464844 317.691406 L 187.480469 318.03125 C 186.847656 318.238281 186.210938 318.414062 185.570312 318.574219 C 184.246094 318.902344 182.90625 319.144531 181.566406 319.335938 C 178.957031 319.691406 176.375 320.179688 173.816406 320.796875 C 169.527344 321.960938 165.140625 324.324219 162.828125 328.261719 C 162.25 329.246094 161.828125 330.292969 161.570312 331.40625 C 161.507812 331.640625 161.488281 331.878906 161.519531 332.121094 C 161.550781 332.367188 161.625 332.59375 161.746094 332.804688 C 161.867188 333.015625 162.023438 333.199219 162.21875 333.347656 C 162.410156 333.5 162.625 333.605469 162.859375 333.671875 C 163.09375 333.738281 163.332031 333.753906 163.578125 333.722656 C 163.820312 333.695312 164.046875 333.621094 164.257812 333.5 C 164.472656 333.378906 164.652344 333.222656 164.804688 333.03125 C 164.953125 332.835938 165.0625 332.625 165.128906 332.386719 C 165.230469 331.953125 165.359375 331.527344 165.515625 331.109375 C 165.515625 331.15625 165.683594 330.71875 165.730469 330.628906 C 165.867188 330.371094 166.011719 330.117188 166.164062 329.867188 C 166.292969 329.660156 166.429688 329.464844 166.566406 329.265625 L 166.808594 328.96875 C 167.144531 328.582031 167.503906 328.214844 167.882812 327.871094 C 168.066406 327.703125 168.257812 327.542969 168.445312 327.382812 L 168.597656 327.269531 L 168.789062 327.125 C 169.222656 326.820312 169.671875 326.53125 170.128906 326.265625 C 170.585938 326 171.027344 325.769531 171.484375 325.550781 L 172.117188 325.265625 L 172.246094 325.207031 L 172.75 325.015625 C 177.4375 323.257812 182.554688 323.21875 187.359375 321.894531 C 189.832031 321.222656 192.140625 320.179688 194.28125 318.769531 C 196.292969 317.40625 198.144531 315.851562 199.839844 314.109375 C 203.128906 310.796875 205.929688 307.066406 209.210938 303.722656 C 210.046875 302.855469 210.910156 302.015625 211.808594 301.210938 C 212.210938 300.84375 212.621094 300.492188 213.03125 300.144531 L 213.695312 299.59375 L 214.03125 299.328125 L 214.113281 299.257812 L 214.199219 299.207031 C 216.054688 297.777344 218.050781 296.582031 220.183594 295.613281 L 220.386719 295.527344 L 220.667969 295.414062 L 221.429688 295.125 C 221.988281 294.925781 222.550781 294.757812 223.121094 294.605469 C 223.691406 294.453125 224.109375 294.363281 224.644531 294.269531 C 224.75 294.269531 225.480469 294.089844 224.972656 294.21875 C 225.242188 294.164062 225.515625 294.136719 225.792969 294.132812 C 226.722656 294.0625 227.652344 294.0625 228.582031 294.132812 L 229.273438 294.203125 L 229.332031 294.203125 L 229.609375 294.242188 C 230.117188 294.332031 230.613281 294.429688 231.128906 294.558594 C 231.648438 294.691406 232.023438 294.804688 232.457031 294.957031 L 233.109375 295.191406 L 233.363281 295.292969 L 233.40625 295.292969 L 233.492188 295.328125 C 234.339844 295.714844 235.152344 296.164062 235.925781 296.675781 L 236.355469 296.988281 L 236.726562 297.277344 C 237.09375 297.597656 237.449219 297.933594 237.785156 298.285156 C 237.9375 298.445312 238.082031 298.613281 238.226562 298.78125 L 238.394531 298.976562 C 238.644531 299.335938 238.898438 299.695312 239.117188 300.074219 C 239.3125 300.421875 239.492188 300.78125 239.652344 301.148438 C 239.652344 301.253906 239.789062 301.5 239.816406 301.574219 C 239.902344 301.832031 239.984375 302.09375 240.054688 302.335938 C 240.367188 303.5 240.488281 304.703125 240.746094 305.878906 C 240.941406 307.054688 241.371094 308.140625 242.035156 309.132812 C 242.699219 310.121094 243.539062 310.933594 244.554688 311.558594 C 248.253906 313.636719 252.929688 312.640625 256.820312 311.605469 C 257.722656 311.320312 258.644531 311.128906 259.582031 311.027344 C 259.058594 311.0625 259.789062 311.027344 259.910156 311.027344 Z M 193.824219 314.453125 Z M 244.742188 306.425781 C 244.707031 306.355469 244.742188 306.378906 244.742188 306.425781 Z M 246.753906 308.535156 L 246.921875 308.605469 C 246.921875 308.605469 246.824219 308.574219 246.753906 308.535156 Z M 248.332031 308.976562 L 248.480469 308.976562 C 248.433594 309 248.382812 309.011719 248.332031 309.015625 Z M 248.332031 308.976562 " fill-opacity="1" fill-rule="nonzero"/><path fill="#b0626b" d="M 85.839844 247.199219 L 85.777344 247.273438 C 85.707031 247.328125 85.617188 247.539062 85.839844 247.199219 Z M 85.839844 247.199219 " fill-opacity="1" fill-rule="nonzero"/><path fill="#b0626b" d="M 87.085938 239.816406 C 86.773438 240.167969 87.011719 239.917969 87.085938 239.816406 Z M 87.085938 239.816406 " fill-opacity="1" fill-rule="nonzero"/><path fill="#b0626b" d="M 82.113281 254.601562 C 82.222656 254.179688 82.128906 254.457031 82.113281 254.601562 Z M 82.113281 254.601562 " fill-opacity="1" fill-rule="nonzero"/><path fill="#b0626b" d="M 213.011719 45.707031 L 213.0625 45.585938 Z M 213.011719 45.707031 " fill-opacity="1" fill-rule="nonzero"/><g clip-path="url(#id7)"><path fill="#b0626b" d="M 222.710938 107.195312 C 228.230469 116.183594 234.085938 124.957031 239.582031 133.957031 C 240.363281 135.242188 241.144531 136.535156 241.925781 137.835938 C 242.011719 137.972656 242.109375 138.09375 242.222656 138.207031 C 242.339844 138.316406 242.464844 138.410156 242.605469 138.488281 C 242.746094 138.566406 242.890625 138.625 243.046875 138.667969 C 243.203125 138.707031 243.359375 138.726562 243.519531 138.726562 C 243.679688 138.726562 243.835938 138.707031 243.988281 138.667969 C 244.144531 138.625 244.292969 138.566406 244.429688 138.488281 C 244.570312 138.410156 244.695312 138.316406 244.8125 138.207031 C 244.925781 138.09375 245.027344 137.972656 245.109375 137.835938 C 250.550781 129.871094 255.484375 121.605469 259.910156 113.039062 C 262.035156 109.054688 264.105469 105.039062 266.222656 101.058594 C 268.414062 96.929688 270.5625 92.824219 272.3125 88.5 C 275.90625 79.789062 278.097656 70.742188 278.890625 61.355469 C 279.304688 56.890625 279.304688 52.425781 278.890625 47.960938 C 278.574219 44.179688 277.613281 40.570312 276.011719 37.128906 C 274.382812 33.816406 272.042969 31.113281 269 29.019531 C 265.421875 26.636719 261.488281 25.238281 257.207031 24.832031 C 255.070312 24.59375 252.949219 24.671875 250.835938 25.070312 C 248.722656 25.46875 246.714844 26.167969 244.8125 27.167969 C 242.925781 28.234375 241.183594 29.503906 239.589844 30.976562 C 238.101562 32.304688 236.738281 33.753906 235.5 35.316406 C 230.332031 41.867188 227.390625 50.167969 228.414062 58.554688 C 229.402344 66.582031 233.660156 74.949219 241.136719 78.714844 C 244.644531 80.480469 248.976562 81.378906 252.746094 79.871094 C 257.070312 78.140625 259.363281 74.097656 260.648438 69.824219 C 261.9375 65.554688 262.398438 60.519531 260.871094 56.117188 C 260.527344 55.097656 260.078125 54.128906 259.515625 53.210938 C 258.957031 52.292969 258.304688 51.445312 257.554688 50.675781 C 256.804688 49.902344 255.980469 49.222656 255.078125 48.636719 C 254.175781 48.050781 253.222656 47.570312 252.214844 47.199219 C 250.261719 46.515625 248.273438 46.382812 246.25 46.800781 C 246.015625 46.867188 245.800781 46.976562 245.605469 47.128906 C 245.410156 47.28125 245.253906 47.464844 245.132812 47.679688 C 245.011719 47.890625 244.9375 48.121094 244.910156 48.367188 C 244.878906 48.609375 244.898438 48.851562 244.964844 49.085938 C 245.035156 49.320312 245.144531 49.535156 245.296875 49.726562 C 245.449219 49.917969 245.632812 50.074219 245.847656 50.195312 C 246.058594 50.316406 246.289062 50.390625 246.53125 50.425781 C 246.773438 50.457031 247.011719 50.441406 247.25 50.382812 C 247.324219 50.382812 247.730469 50.3125 247.707031 50.304688 L 248.246094 50.304688 C 248.644531 50.300781 249.042969 50.320312 249.441406 50.359375 L 249.890625 50.433594 C 250.113281 50.480469 250.324219 50.527344 250.539062 50.585938 L 251.085938 50.761719 L 251.574219 50.945312 C 252.347656 51.289062 253.078125 51.71875 253.757812 52.226562 L 254.117188 52.515625 L 254.558594 52.910156 C 254.910156 53.246094 255.242188 53.597656 255.554688 53.96875 L 255.746094 54.210938 L 255.792969 54.265625 C 255.90625 54.433594 256.019531 54.59375 256.125 54.761719 C 256.394531 55.160156 256.636719 55.578125 256.851562 56.011719 C 257.03125 56.347656 257.179688 56.699219 257.300781 57.0625 C 257.480469 57.585938 257.640625 58.121094 257.769531 58.660156 C 258.007812 59.585938 258.132812 60.53125 258.152344 61.484375 C 258.1875 62.550781 258.144531 63.613281 258.023438 64.667969 C 258.023438 64.769531 258.023438 64.867188 258.023438 64.964844 C 258.019531 64.996094 258.019531 65.023438 258.023438 65.050781 C 257.976562 65.316406 257.9375 65.574219 257.886719 65.8125 C 257.792969 66.335938 257.679688 66.855469 257.550781 67.378906 C 257.304688 68.386719 257.003906 69.375 256.644531 70.34375 C 256.5625 70.578125 256.46875 70.816406 256.378906 71.042969 L 256.378906 71.089844 L 256.164062 71.402344 C 255.933594 71.882812 255.679688 72.347656 255.402344 72.804688 C 254.988281 73.59375 254.453125 74.296875 253.796875 74.90625 C 253.621094 75.074219 253.445312 75.234375 253.257812 75.390625 L 253.210938 75.390625 L 252.996094 75.542969 C 252.617188 75.808594 252.21875 76.039062 251.800781 76.238281 L 251.632812 76.320312 L 251.582031 76.320312 L 250.980469 76.527344 C 250.554688 76.648438 250.121094 76.746094 249.683594 76.816406 L 249.433594 76.816406 C 249.222656 76.816406 249.007812 76.816406 248.785156 76.816406 C 248.328125 76.828125 247.867188 76.8125 247.410156 76.769531 L 247.035156 76.726562 L 246.511719 76.625 C 246.070312 76.542969 245.636719 76.429688 245.207031 76.304688 C 244.78125 76.183594 244.347656 76.015625 243.921875 75.855469 L 243.832031 75.972656 L 243.617188 75.871094 C 243.402344 75.78125 243.199219 75.683594 242.992188 75.574219 C 242.171875 75.164062 241.386719 74.691406 240.640625 74.160156 L 240.257812 73.871094 L 239.808594 73.503906 C 239.460938 73.207031 239.125 72.894531 238.804688 72.574219 C 238.140625 71.910156 237.515625 71.210938 236.933594 70.472656 L 236.886719 70.410156 L 236.671875 70.121094 L 236.261719 69.550781 C 235.996094 69.164062 235.746094 68.789062 235.5 68.355469 C 235.007812 67.550781 234.5625 66.714844 234.167969 65.859375 L 233.917969 65.292969 L 233.757812 64.914062 C 233.574219 64.449219 233.40625 63.976562 233.246094 63.496094 C 232.945312 62.597656 232.691406 61.683594 232.484375 60.753906 C 232.394531 60.320312 232.3125 59.878906 232.234375 59.445312 C 232.1875 59.207031 232.160156 58.972656 232.121094 58.738281 C 232.121094 58.585938 232.121094 58.425781 232.058594 58.273438 C 231.960938 57.328125 231.90625 56.375 231.898438 55.421875 C 231.894531 54.472656 231.9375 53.523438 232.027344 52.574219 L 232.097656 51.957031 L 232.097656 51.90625 L 232.144531 51.570312 C 232.21875 51.089844 232.304688 50.617188 232.402344 50.152344 C 232.601562 49.210938 232.84375 48.28125 233.125 47.367188 C 233.261719 46.941406 233.40625 46.511719 233.558594 46.09375 C 233.644531 45.867188 233.726562 45.644531 233.816406 45.417969 C 233.855469 45.308594 233.902344 45.195312 233.949219 45.089844 L 233.949219 44.945312 C 234.707031 43.175781 235.621094 41.488281 236.6875 39.886719 C 236.933594 39.515625 237.191406 39.125 237.449219 38.777344 C 237.585938 38.578125 237.730469 38.386719 237.875 38.195312 L 237.960938 38.082031 L 238.203125 37.785156 C 238.804688 37.023438 239.4375 36.308594 240.105469 35.609375 C 240.777344 34.90625 241.425781 34.28125 242.117188 33.65625 C 242.476562 33.339844 242.878906 33.027344 243.214844 32.714844 L 243.777344 32.265625 L 243.875 32.1875 L 244.121094 32.003906 C 244.90625 31.410156 245.734375 30.875 246.601562 30.40625 C 247.011719 30.183594 247.433594 29.976562 247.859375 29.789062 C 247.933594 29.789062 248.183594 29.660156 248.230469 29.636719 L 248.992188 29.363281 C 249.910156 29.058594 250.847656 28.828125 251.800781 28.660156 L 252.289062 28.59375 C 252.503906 28.5625 252.714844 28.539062 252.929688 28.523438 C 253.410156 28.480469 253.894531 28.457031 254.382812 28.449219 C 258.210938 28.375 261.816406 29.238281 265.195312 31.039062 C 265.957031 31.449219 266.695312 31.90625 267.402344 32.410156 L 267.828125 32.730469 L 268.066406 32.925781 C 268.410156 33.210938 268.738281 33.5 269.046875 33.792969 C 269.613281 34.332031 270.140625 34.90625 270.628906 35.515625 C 270.691406 35.59375 270.753906 35.660156 270.804688 35.738281 C 270.90625 35.882812 271.019531 36.019531 271.117188 36.15625 C 271.363281 36.507812 271.597656 36.863281 271.820312 37.222656 C 272.242188 37.90625 272.625 38.617188 272.96875 39.347656 C 273.050781 39.53125 273.128906 39.71875 273.21875 39.902344 C 273.246094 39.960938 273.273438 40.023438 273.296875 40.085938 C 273.464844 40.488281 273.617188 40.902344 273.753906 41.3125 C 274.296875 42.925781 274.703125 44.574219 274.96875 46.253906 C 274.96875 46.445312 275.023438 46.636719 275.054688 46.824219 C 275.054688 46.894531 275.054688 46.960938 275.054688 47.03125 C 275.058594 47.070312 275.058594 47.113281 275.054688 47.152344 C 275.109375 47.59375 275.160156 48.035156 275.199219 48.484375 C 275.289062 49.46875 275.34375 50.464844 275.382812 51.457031 C 275.464844 53.664062 275.464844 55.875 275.382812 58.074219 C 275.210938 62.398438 274.6875 66.675781 273.8125 70.914062 C 272.925781 75.253906 271.730469 79.503906 270.226562 83.671875 C 268.769531 87.726562 267.023438 91.65625 264.996094 95.460938 C 263.023438 99.191406 261.03125 102.921875 259.066406 106.664062 C 254.871094 114.675781 250.589844 122.65625 245.710938 130.273438 C 245.011719 131.367188 244.289062 132.464844 243.554688 133.546875 C 238.460938 125.167969 233.109375 116.96875 227.894531 108.671875 C 225.535156 104.910156 223.21875 101.117188 221.042969 97.25 C 220.03125 95.421875 219.046875 93.5625 218.117188 91.683594 C 217.671875 90.777344 217.238281 89.863281 216.816406 88.941406 L 216.269531 87.707031 L 215.972656 87.023438 L 215.910156 86.882812 C 215.910156 86.839844 215.765625 86.535156 215.75 86.496094 C 214.238281 82.832031 213.027344 79.070312 212.121094 75.210938 C 211.648438 73.230469 211.257812 71.21875 210.960938 69.199219 L 210.871094 68.5625 C 210.871094 68.5625 210.816406 68.148438 210.800781 68.058594 C 210.734375 67.503906 210.671875 66.945312 210.613281 66.390625 C 210.503906 65.316406 210.414062 64.234375 210.351562 63.144531 C 210.195312 60.933594 210.195312 58.722656 210.351562 56.511719 C 210.351562 55.996094 210.445312 55.484375 210.503906 54.988281 C 210.503906 54.890625 210.574219 54.523438 210.503906 54.914062 L 210.550781 54.585938 C 210.597656 54.265625 210.648438 53.945312 210.710938 53.617188 C 210.902344 52.546875 211.136719 51.488281 211.425781 50.433594 C 211.714844 49.382812 212.042969 48.339844 212.417969 47.320312 C 212.597656 46.800781 212.804688 46.300781 213.011719 45.796875 C 213.03125 45.757812 213.050781 45.71875 213.0625 45.675781 C 213.101562 45.597656 213.132812 45.515625 213.167969 45.441406 C 213.292969 45.15625 213.414062 44.890625 213.542969 44.617188 C 214.472656 42.628906 215.558594 40.730469 216.792969 38.921875 C 217.105469 38.472656 217.417969 38.023438 217.746094 37.578125 L 217.945312 37.320312 L 218.109375 37.101562 C 218.171875 37.023438 218.261719 36.902344 218.261719 36.910156 L 218.566406 36.527344 C 219.261719 35.675781 219.988281 34.851562 220.738281 34.0625 C 221.5 33.300781 222.261719 32.539062 223.097656 31.777344 C 223.5 31.410156 223.921875 31.0625 224.339844 30.710938 L 224.917969 30.246094 L 225.140625 30.070312 L 225.382812 29.878906 C 227.132812 28.566406 228.980469 27.40625 230.925781 26.40625 C 231.40625 26.164062 231.898438 25.921875 232.394531 25.691406 L 233.15625 25.363281 L 233.246094 25.363281 L 233.621094 25.210938 C 234.632812 24.800781 235.667969 24.449219 236.710938 24.128906 C 237.753906 23.808594 238.828125 23.558594 239.902344 23.367188 C 240.136719 23.300781 240.351562 23.191406 240.546875 23.042969 C 240.738281 22.890625 240.894531 22.707031 241.015625 22.492188 C 241.136719 22.277344 241.210938 22.050781 241.242188 21.804688 C 241.273438 21.5625 241.253906 21.320312 241.1875 21.085938 C 241.117188 20.851562 241.007812 20.636719 240.855469 20.445312 C 240.703125 20.253906 240.519531 20.097656 240.304688 19.980469 C 240.09375 19.859375 239.867188 19.785156 239.621094 19.753906 C 239.378906 19.71875 239.140625 19.734375 238.90625 19.796875 C 236.671875 20.273438 234.496094 20.9375 232.375 21.785156 C 230.253906 22.636719 228.222656 23.65625 226.277344 24.855469 C 224.332031 26.050781 222.5 27.402344 220.785156 28.910156 C 219.070312 30.417969 217.496094 32.0625 216.0625 33.839844 C 210.214844 40.976562 206.570312 49.941406 206.53125 59.230469 C 206.53125 67.894531 208.027344 76.289062 211.023438 84.417969 C 213.992188 92.367188 218.21875 99.90625 222.710938 107.195312 Z M 255.699219 54.144531 Z M 255.699219 54.144531 " fill-opacity="1" fill-rule="nonzero"/></g></svg>