<svg xmlns="http://www.w3.org/2000/svg" xmlns:xlink="http://www.w3.org/1999/xlink" width="500" zoomAndPan="magnify" viewBox="0 0 375 374.999991" height="500" preserveAspectRatio="xMidYMid meet" version="1.0"><path fill="#3c4c59" d="M 10.757812 161.894531 C 10.925781 160.804688 11.148438 159.726562 11.335938 158.636719 C 11.300781 158.816406 11.257812 158.996094 11.226562 159.175781 C 11.058594 160.082031 10.910156 160.988281 10.757812 161.894531 " fill-opacity="1" fill-rule="nonzero"/><path fill="#3c4c59" d="M 10.757812 161.894531 C 10.726562 162.117188 10.679688 162.332031 10.648438 162.558594 C 10.679688 162.339844 10.726562 162.117188 10.757812 161.894531 " fill-opacity="1" fill-rule="nonzero"/><path fill="#3c4c59" d="M 15.242188 141.289062 C 13.652344 147.003906 12.351562 152.792969 11.335938 158.636719 C 12.429688 152.832031 13.722656 147.039062 15.242188 141.289062 " fill-opacity="1" fill-rule="nonzero"/><path fill="#3c4c59" d="M 16.28125 232.582031 C 16.300781 232.625 16.359375 232.609375 16.347656 232.566406 C 8.515625 210.492188 7.105469 186.234375 10.648438 162.558594 C 6.785156 186.074219 8.242188 210.046875 16.28125 232.582031 " fill-opacity="1" fill-rule="nonzero"/><path fill="#3c4c59" d="M 336.027344 291.148438 C 320.355469 320.023438 297.117188 346.089844 265.839844 358.027344 C 264.761719 358.4375 263.679688 358.757812 262.601562 359.125 C 279.890625 351.652344 295.292969 339.90625 308.167969 326.191406 C 345.183594 286.738281 363.914062 229.214844 363.785156 175.589844 C 363.996094 183.75 363.753906 191.847656 363.203125 199.683594 C 360.917969 231.960938 351.429688 262.746094 336.027344 291.148438 Z M 228.027344 364.144531 C 227.839844 364.144531 227.652344 364.136719 227.453125 364.136719 C 227.46875 364.128906 227.488281 364.121094 227.5 364.113281 C 228.023438 363.808594 227.675781 362.960938 227.085938 363.132812 C 225.90625 363.488281 224.742188 363.78125 223.566406 364.101562 C 221.136719 364.046875 218.710938 363.972656 216.265625 363.859375 C 209.335938 363.519531 202.414062 362.972656 195.507812 362.296875 C 197.710938 361.84375 199.910156 361.371094 202.074219 360.875 C 213.140625 358.339844 223.898438 355.035156 234.195312 350.796875 C 253.738281 347.90625 273.046875 342.171875 289.972656 332.128906 C 312.242188 318.910156 326.078125 295.453125 335.074219 271.851562 C 336.582031 267.894531 337.921875 263.875 339.183594 259.828125 C 339.515625 259.925781 339.898438 259.800781 340.019531 259.355469 C 346.9375 233.164062 351.519531 204.5625 350.824219 176.441406 C 350.964844 151.839844 348.277344 126.957031 341.652344 103.289062 C 341.5 102.761719 340.699219 102.980469 340.835938 103.507812 C 344.328125 117.113281 346.472656 131.066406 347.640625 145.125 C 344.285156 127.0625 338.160156 109.691406 328.367188 93.851562 C 324.261719 87.21875 319.527344 81.09375 314.3125 75.429688 C 324.453125 83.054688 334.273438 91.441406 341.820312 101.4375 C 347.394531 110.425781 351.835938 120.117188 354.777344 130.523438 C 362.40625 157.566406 361.886719 186.710938 357.144531 214.203125 C 347.703125 268.898438 317.890625 327.214844 266.484375 353.03125 C 254.523438 359.042969 241.441406 362.519531 228.027344 364.144531 Z M 162.496094 367.601562 C 161.480469 367.417969 160.472656 367.15625 159.449219 366.945312 C 163.886719 366.757812 168.320312 366.433594 172.730469 365.941406 C 181.25 367.515625 189.933594 368.550781 198.636719 368.960938 C 186.839844 370.214844 174.984375 369.914062 162.496094 367.601562 Z M 95.097656 339.882812 C 86.882812 334.660156 78.640625 328.628906 70.796875 321.917969 C 83.371094 332.019531 97.679688 339.875 113.003906 344.746094 C 114.84375 345.539062 116.691406 346.316406 118.566406 347.066406 C 129.257812 352.710938 140.480469 357.414062 152.136719 360.960938 C 158.328125 362.839844 164.675781 364.398438 171.125 365.644531 C 166.65625 366.109375 162.152344 366.421875 157.648438 366.550781 C 135.398438 361.6875 114.234375 352.074219 95.097656 339.882812 Z M 66.136719 313.875 C 65.890625 313.652344 65.648438 313.417969 65.398438 313.191406 C 60.835938 305.171875 56.207031 297.03125 51.695312 288.683594 C 61.804688 302.914062 73.898438 315.660156 87.472656 326.605469 C 82.625 324.765625 78.046875 322.660156 73.71875 320.1875 C 71.125 318.175781 68.585938 316.078125 66.136719 313.875 Z M 42.722656 286.507812 C 38.097656 277.394531 34.703125 267.597656 32.054688 257.859375 C 31.808594 256.964844 31.589844 256.054688 31.355469 255.15625 C 38.570312 272.316406 47.324219 288.878906 56.46875 304.390625 C 51.457031 298.886719 46.878906 292.894531 42.722656 286.507812 Z M 20.796875 237.492188 C 22.957031 248.234375 26.109375 258.78125 30.34375 268.765625 C 34.878906 279.445312 40.863281 289.511719 47.980469 298.703125 C 33.382812 280.820312 22.808594 260.046875 20.796875 237.492188 Z M 27.972656 246.753906 C 28.972656 251.667969 30.117188 256.566406 31.460938 261.421875 C 32.667969 265.804688 34.132812 270.246094 35.832031 274.652344 C 34.855469 272.796875 33.84375 270.972656 32.941406 269.058594 C 26.511719 255.4375 22.738281 240.371094 20.714844 225.261719 C 22.789062 232.496094 25.238281 239.667969 27.972656 246.753906 Z M 19.121094 208.25 C 19.019531 206.378906 18.949219 204.484375 18.90625 202.578125 C 19.378906 206.714844 19.953125 210.847656 20.699219 214.949219 C 20.125 212.722656 19.609375 210.492188 19.121094 208.25 Z M 17.234375 198.300781 C 14.296875 179.808594 14.46875 160.945312 19.347656 141.847656 C 26.230469 114.925781 40.566406 89.554688 58.800781 68.71875 C 62.582031 64.394531 66.660156 60.222656 70.992188 56.3125 C 73.378906 54.363281 75.800781 52.445312 78.226562 50.546875 C 79.175781 50.589844 80.105469 50.582031 81.042969 50.597656 C 71.726562 58.871094 63.261719 67.734375 55.945312 76.65625 C 55.195312 77.574219 54.464844 78.503906 53.726562 79.4375 C 53.171875 79.886719 52.621094 80.328125 52.066406 80.78125 C 55.019531 76.078125 58.332031 71.609375 62.085938 67.480469 C 62.304688 67.25 61.960938 66.902344 61.742188 67.136719 C 55.082031 74.253906 49.746094 82.222656 45.414062 90.710938 C 32.648438 109.324219 23.234375 130.078125 19.785156 152.566406 C 17.992188 164.296875 17.367188 176.167969 17.800781 187.996094 C 17.492188 191.429688 17.304688 194.875 17.234375 198.300781 Z M 85.363281 45.101562 C 88.21875 43.199219 91.128906 41.410156 94.128906 39.792969 C 89.886719 43.011719 85.800781 46.394531 81.84375 49.882812 C 80.925781 49.894531 80.019531 49.898438 79.105469 49.882812 C 81.183594 48.277344 83.261719 46.683594 85.363281 45.101562 Z M 104.902344 34.851562 C 110.265625 32.789062 115.820312 31.277344 121.539062 30.367188 C 120.445312 30.992188 119.34375 31.621094 118.265625 32.277344 C 111.292969 35.914062 104.492188 40.054688 97.929688 44.6875 C 95.800781 46.195312 93.710938 47.746094 91.613281 49.300781 C 89.539062 49.535156 87.453125 49.6875 85.363281 49.796875 C 91.570312 44.425781 98.082031 39.402344 104.902344 34.851562 Z M 141.277344 16.304688 C 160.976562 9.207031 182.773438 7.117188 203.019531 12.785156 C 197.128906 12.003906 191.222656 11.570312 185.359375 11.527344 C 176.066406 10.453125 167.304688 11.640625 158.867188 14.28125 C 150.832031 16.109375 143.007812 18.875 135.527344 22.765625 C 135.082031 23 134.988281 23.386719 135.082031 23.746094 C 131.140625 25.34375 127.296875 27.167969 123.558594 29.226562 C 118.621094 29.71875 113.824219 30.679688 109.175781 32.078125 C 119.324219 25.710938 130.058594 20.355469 141.277344 16.304688 Z M 238.226562 32.425781 C 244.140625 34.464844 249.988281 36.691406 255.714844 39.101562 C 257.695312 40.042969 259.636719 41.0625 261.589844 42.050781 C 253.503906 39.59375 245.808594 36.160156 238.226562 32.425781 Z M 151.964844 18.742188 C 165.4375 15 179.621094 14.175781 193.667969 15.269531 C 195.539062 15.726562 197.386719 16.246094 199.203125 16.832031 C 201.382812 17.527344 203.519531 18.324219 205.644531 19.160156 C 202.054688 18.453125 198.457031 17.824219 194.828125 17.347656 C 184.496094 16.003906 174.417969 16.085938 164.59375 17.328125 C 163.121094 17.398438 161.652344 17.464844 160.1875 17.582031 C 157.394531 17.816406 154.664062 18.238281 151.964844 18.742188 Z M 98.695312 48.285156 C 103.136719 44.660156 107.714844 41.144531 112.453125 37.910156 C 116.683594 35.414062 121.015625 33.101562 125.472656 30.976562 C 116.792969 36.363281 108.277344 42.058594 99.953125 48.042969 C 99.535156 48.121094 99.117188 48.21875 98.695312 48.285156 Z M 63.964844 71.140625 C 70.257812 63.902344 77.089844 57.035156 84.375 50.652344 C 86.316406 50.613281 88.242188 50.492188 90.164062 50.363281 C 81.25 57.035156 72.597656 64.089844 63.964844 71.140625 Z M 93.894531 50.140625 C 89.996094 53.394531 86.175781 56.707031 82.425781 60.015625 C 78.042969 63.882812 73.757812 67.871094 69.617188 71.996094 C 67.742188 73.625 65.863281 75.246094 64.035156 76.898438 C 58.976562 81.453125 52.992188 86.828125 47.421875 92.785156 C 51.214844 87.078125 55.292969 81.546875 59.632812 76.257812 C 71.101562 67.613281 82.277344 58.503906 93.894531 50.140625 Z M 22.332031 168.734375 C 22.898438 166.605469 23.554688 164.515625 24.289062 162.449219 C 23.625 174.90625 24.242188 187.527344 26.109375 199.945312 C 26.3125 207.402344 26.757812 214.820312 27.503906 222.140625 C 27.871094 225.796875 28.417969 229.421875 29.09375 233.019531 C 27.171875 226.527344 25.554688 219.929688 24.335938 213.246094 C 22.960938 198.453125 22.503906 183.535156 22.332031 168.734375 Z M 22.503906 200.714844 C 21.453125 191.515625 21.007812 182.21875 21.324219 172.890625 C 21.460938 172.25 21.625 171.625 21.777344 170.988281 C 21.8125 180.890625 22.003906 190.8125 22.503906 200.714844 Z M 24.632812 156.421875 C 24.546875 157.472656 24.519531 158.539062 24.453125 159.597656 C 23.671875 161.5 22.933594 163.425781 22.296875 165.398438 C 22.28125 163.464844 22.269531 161.539062 22.253906 159.613281 C 22.46875 157.554688 22.695312 155.496094 22.984375 153.445312 C 24.242188 144.347656 26.542969 135.53125 29.675781 127.007812 C 27.054688 136.652344 25.476562 146.617188 24.632812 156.421875 Z M 28.382812 153.09375 C 26.597656 167.488281 25.820312 182.183594 26.058594 196.765625 C 24.496094 185.148438 23.941406 173.277344 24.648438 161.515625 C 25.710938 158.628906 26.957031 155.8125 28.382812 153.09375 Z M 24.835938 158.699219 C 25.984375 143.769531 29.101562 129.097656 34.480469 115.519531 C 35.554688 113.214844 36.703125 110.953125 37.890625 108.699219 C 34.464844 118.804688 32.054688 129.304688 30.285156 139.808594 C 29.648438 143.542969 29.101562 147.3125 28.613281 151.101562 C 27.203125 153.566406 25.945312 156.097656 24.835938 158.699219 Z M 100.863281 336.5 C 95.207031 333.945312 89.777344 331.019531 84.585938 327.753906 C 86.683594 328.417969 88.835938 328.960938 91.054688 329.386719 C 94.257812 331.847656 97.515625 334.242188 100.863281 336.5 Z M 185.601562 363.558594 C 185.285156 363.613281 184.964844 363.660156 184.648438 363.722656 C 181.429688 363.328125 178.238281 362.882812 175.097656 362.355469 C 172.105469 361.859375 169.136719 361.257812 166.175781 360.601562 C 172.617188 361.796875 179.105469 362.746094 185.601562 363.558594 Z M 198.5625 364.980469 C 194.554688 364.761719 190.570312 364.417969 186.625 363.964844 C 186.949219 363.914062 187.269531 363.859375 187.597656 363.796875 C 191.25 364.234375 194.902344 364.636719 198.5625 364.980469 Z M 161.167969 357.425781 C 153.246094 355.894531 145.359375 354.019531 137.574219 351.777344 C 135.363281 350.890625 133.160156 349.972656 130.988281 349.003906 C 132.660156 349.261719 134.335938 349.496094 136.023438 349.675781 C 137.390625 349.828125 137.710938 347.5 136.351562 347.273438 C 130.589844 346.300781 124.960938 345.011719 119.492188 343.421875 C 113.296875 340.144531 107.308594 336.484375 101.519531 332.542969 C 107.660156 335.964844 114.058594 338.9375 120.679688 341.382812 C 121.265625 341.597656 121.636719 340.679688 121.097656 340.386719 C 118.917969 339.191406 116.765625 337.996094 114.613281 336.789062 C 119.632812 338.992188 124.753906 340.945312 129.890625 342.65625 C 157.160156 351.75 186.554688 354.535156 215.148438 352.765625 C 219.570312 352.5 224.011719 352.097656 228.441406 351.5625 C 216.984375 356.082031 205.050781 359.519531 193.078125 362.0625 C 182.382812 360.953125 171.734375 359.460938 161.167969 357.425781 Z M 346.824219 161.429688 C 349.164062 188.273438 346.015625 216.054688 341.574219 242.574219 C 338.421875 256.242188 334.105469 269.601562 328.351562 282.335938 C 316.609375 308.273438 298.253906 327.851562 271.730469 338.574219 C 262.28125 342.394531 252.433594 345.191406 242.382812 347.171875 C 255.878906 340.777344 268.464844 332.601562 279.738281 322.179688 C 320.648438 284.363281 345.835938 225.019531 346.910156 169.605469 C 346.964844 166.878906 346.925781 164.152344 346.824219 161.429688 Z M 282.988281 60.550781 C 284.414062 61.792969 285.929688 63.109375 287.480469 64.46875 C 290.632812 66.359375 293.742188 68.328125 296.746094 70.417969 C 349.652344 107.203125 351.605469 178.003906 332.613281 233.820312 C 318.710938 274.683594 292.761719 314.929688 255.558594 338.097656 C 249.378906 341.945312 242.878906 345.292969 236.195312 348.292969 C 219.851562 350.953125 203.101562 351.535156 186.777344 350.757812 C 145.996094 348.804688 97.597656 336.914062 71.691406 302.707031 C 71.457031 302.386719 70.921875 302.675781 71.144531 303.011719 C 73.855469 307.035156 76.933594 310.714844 80.261719 314.097656 C 75.101562 309.914062 70.160156 305.394531 65.511719 300.453125 C 55.429688 288.667969 47.007812 275.664062 40.277344 261.859375 C 34.617188 248.617188 31.007812 234.488281 29.460938 220.109375 C 29.277344 218.347656 29.140625 216.566406 28.996094 214.792969 C 31.0625 223.484375 33.734375 232.007812 37.144531 240.191406 C 37.175781 240.285156 37.328125 240.246094 37.296875 240.148438 C 33.785156 231.425781 30.925781 222.113281 28.792969 212.480469 C 27.179688 191.472656 28.085938 169.820312 30.753906 148.957031 C 31.113281 148.394531 31.433594 147.820312 31.8125 147.261719 C 32.058594 146.898438 31.464844 146.554688 31.222656 146.914062 C 31.128906 147.039062 31.058594 147.171875 30.976562 147.289062 C 31.199219 145.632812 31.394531 143.949219 31.640625 142.292969 C 33.578125 129.082031 36.589844 115.496094 41.382812 102.679688 C 41.78125 102.179688 42.171875 101.671875 42.570312 101.183594 C 46.910156 95.804688 51.710938 90.808594 56.691406 86 C 53.988281 89.230469 51.382812 92.546875 48.917969 95.96875 C 42.347656 105.097656 35.96875 116.425781 37.15625 128.097656 C 37.15625 128.175781 37.289062 128.175781 37.285156 128.097656 C 36.347656 117.058594 43.234375 106.582031 49.292969 97.941406 C 55.832031 88.621094 63.699219 80.179688 71.917969 72.242188 C 81.464844 64.0625 91.460938 56.347656 101.75 49.050781 C 105.128906 48.523438 108.484375 47.871094 111.835938 47.167969 C 113.242188 46.382812 114.644531 45.605469 116.074219 44.855469 C 116.355469 44.636719 116.628906 44.410156 116.90625 44.191406 C 112.785156 45.261719 108.65625 46.292969 104.511719 47.164062 C 113.082031 41.164062 121.832031 35.402344 130.742188 29.996094 C 133.019531 28.609375 135.328125 27.242188 137.652344 25.90625 C 139 25.414062 140.328125 24.886719 141.703125 24.445312 C 151.085938 21.410156 160.597656 19.734375 170.125 19.179688 C 181.425781 19.222656 192.796875 20.816406 203.628906 22.964844 C 210.734375 24.375 217.8125 26.128906 224.828125 28.15625 C 232.589844 32.210938 240.273438 36.386719 248.230469 39.855469 C 252.367188 40.609375 256.585938 42.285156 260.679688 44.441406 C 263.875 45.386719 267.136719 46.222656 270.5 46.777344 C 278.535156 51.21875 286.386719 55.984375 294.023438 61.078125 C 304.628906 69.246094 314.089844 78.816406 321.9375 89.8125 C 309.925781 74.84375 293.929688 63.652344 276.609375 55.195312 C 278.980469 57.101562 281.136719 58.945312 282.988281 60.550781 Z M 221.96875 19.929688 C 252.75 27.515625 281.9375 42.707031 306.566406 62.558594 C 315.285156 69.585938 323.402344 77.378906 330.539062 85.914062 C 321.378906 77.167969 310.976562 69.5 300.285156 62.183594 C 293.246094 56.402344 285.617188 51.320312 277.675781 46.777344 C 277.804688 46.15625 277.457031 45.367188 276.636719 45.273438 C 275.929688 45.191406 275.242188 45.054688 274.546875 44.953125 C 271.234375 43.144531 267.894531 41.421875 264.496094 39.808594 C 260.039062 37.703125 255.453125 35.707031 250.785156 33.8125 C 239.660156 28.820312 228.199219 24.648438 216.464844 21.59375 C 212.519531 19.75 208.535156 18.007812 204.453125 16.480469 C 210.375 17.34375 216.238281 18.519531 221.96875 19.929688 Z M 357.980469 127.09375 C 356.132812 121.640625 353.789062 116.570312 351.105469 111.785156 C 349.210938 107.699219 347.089844 103.714844 344.695312 99.855469 C 329.71875 75.742188 306.839844 56.785156 282.789062 42.226562 C 260.800781 28.921875 233.957031 17.574219 206.734375 13.316406 C 169.945312 0.277344 131.882812 13.167969 100.273438 35.324219 C 98.664062 36.015625 97.085938 36.773438 95.515625 37.558594 C 100.863281 33.59375 106.199219 29.636719 111.390625 25.578125 C 111.484375 25.511719 111.359375 25.355469 111.269531 25.425781 C 105.425781 29.867188 99.484375 34.203125 93.5625 38.574219 C 81.628906 44.871094 70.878906 53.671875 61.472656 63.425781 C 60.226562 64.714844 59.050781 66.097656 57.839844 67.433594 C 48.53125 76.269531 40.097656 85.972656 33.234375 97.257812 C 24.976562 110.84375 19.289062 125.878906 15.242188 141.289062 C 19.710938 125.164062 26.335938 109.710938 34.710938 95.898438 C 40.394531 86.527344 47.28125 78.277344 54.890625 70.699219 C 38.625 89.699219 26.363281 112.503906 19.039062 136.28125 C 11.269531 161.515625 11.90625 187.4375 17.550781 212.832031 C 17.945312 219.308594 18.714844 225.796875 19.804688 232.242188 C 20.578125 266.75 40.828125 297.195312 66.25 320.4375 C 66.304688 320.515625 66.347656 320.589844 66.394531 320.667969 C 66.601562 320.992188 66.867188 321.15625 67.144531 321.25 C 75.21875 328.542969 83.785156 335.117188 92.402344 340.863281 C 109.261719 352.109375 127.921875 360.945312 147.457031 366.535156 C 134.46875 366.09375 121.566406 364 109.457031 359.710938 C 109.277344 359.644531 109.207031 359.921875 109.382812 359.988281 C 122.109375 364.730469 135.652344 366.800781 149.351562 367.074219 C 153.476562 368.207031 157.625 369.246094 161.816406 370.074219 C 178.898438 373.453125 199.246094 374.613281 216.535156 368.929688 C 223.996094 368.550781 231.386719 367.679688 238.644531 366.328125 C 244.914062 365.886719 251.171875 364.988281 257.414062 363.402344 C 318.363281 347.945312 353.539062 278.550781 363.109375 221.3125 C 368.304688 190.28125 368.171875 157.113281 357.980469 127.09375 " fill-opacity="1" fill-rule="nonzero"/><path fill="#3c4c59" d="M 252.667969 253.960938 C 242.242188 243.707031 230.039062 237.53125 216.472656 231.890625 C 215.917969 231.65625 215.511719 232.621094 216.0625 232.855469 C 223.800781 236.140625 231.09375 240.082031 238.230469 244.511719 C 239.90625 245.550781 241.441406 246.679688 242.902344 247.867188 C 236.878906 244.347656 230.777344 241.105469 225.011719 238.035156 C 219.480469 235.09375 213.824219 232.285156 208.050781 229.769531 C 209.292969 230.046875 210.5 230.160156 211.609375 229.980469 C 212.203125 229.890625 212.117188 229.148438 211.761719 228.871094 C 209.140625 226.863281 187.667969 216.097656 182.21875 216.9375 C 182.117188 216.554688 182.050781 216.152344 181.9375 215.777344 C 181.996094 215.738281 182.078125 215.71875 182.132812 215.667969 C 184.445312 213.726562 182.84375 207.492188 182.523438 205.144531 C 181.398438 196.804688 180.15625 188.476562 179.273438 180.109375 C 176.710938 155.632812 176.640625 130.882812 175.761719 106.28125 C 180.484375 115.867188 186.992188 126.273438 188.09375 128.265625 C 197.226562 144.820312 207.53125 160.972656 215.710938 178.027344 C 224.328125 196.003906 235.121094 213.089844 245.011719 230.378906 C 250.402344 239.804688 255.796875 249.246094 261.007812 258.78125 C 261.386719 259.480469 261.738281 260.191406 262.113281 260.894531 C 259.113281 258.445312 255.9375 256.148438 252.667969 253.960938 Z M 258.234375 264.945312 C 254.441406 261.503906 249.972656 258.691406 245.765625 255.898438 C 242.714844 253.878906 239.707031 251.867188 236.707031 249.824219 C 245.535156 254.820312 254.402344 260.386719 261.898438 266.996094 C 260.730469 266.199219 259.511719 265.460938 258.234375 264.945312 Z M 196.375 225.246094 C 193.464844 224.300781 187.960938 222.210938 183.367188 221.882812 C 183.308594 221.523438 183.214844 221.171875 183.152344 220.816406 C 183.152344 220.675781 183.117188 220.535156 183.070312 220.402344 C 182.9375 219.761719 182.746094 219.136719 182.601562 218.5 C 183.601562 218.839844 184.707031 219.449219 185.46875 219.746094 C 189.105469 221.144531 192.632812 222.847656 196.167969 224.46875 C 197.53125 225.101562 199.160156 225.992188 200.878906 226.886719 C 199.382812 226.324219 197.886719 225.742188 196.375 225.246094 Z M 178.761719 222.105469 C 178.617188 222.285156 178.472656 222.472656 178.320312 222.652344 C 178.148438 222.738281 177.945312 222.804688 177.78125 222.917969 C 177.648438 223.019531 177.582031 223.179688 177.554688 223.332031 C 174.019531 226.472656 170.625 229.847656 166.804688 232.5625 C 167.171875 232.09375 167.570312 231.640625 167.917969 231.164062 C 168.039062 231.03125 168.167969 230.914062 168.285156 230.78125 C 171.992188 227.792969 175.589844 224.671875 179.007812 221.339844 C 180.160156 220.222656 178.707031 218.613281 177.386719 219.238281 C 168.042969 223.640625 160.257812 230.472656 153.777344 238.417969 C 147.753906 242.707031 141.632812 246.863281 135.605469 251.152344 C 134.707031 251.789062 135.519531 253.246094 136.480469 252.648438 C 138.347656 251.488281 140.214844 250.324219 142.078125 249.148438 C 140.949219 250.070312 139.882812 251.082031 138.894531 252.21875 C 134.394531 255.832031 129.746094 259.597656 125.582031 263.761719 C 122.566406 266.117188 119.550781 268.480469 116.59375 270.910156 C 118.675781 264.242188 120.804688 257.597656 122.996094 250.96875 C 129.097656 232.527344 135.648438 214.238281 142.191406 195.949219 C 152.492188 167.160156 163.007812 138.25 171.425781 108.808594 C 171.175781 131.714844 172.792969 154.949219 174.457031 177.671875 C 174.980469 184.816406 176.058594 191.941406 177.019531 199.046875 C 177.394531 201.867188 177.78125 204.679688 178.1875 207.5 C 177.585938 207.457031 176.910156 207.960938 177.167969 208.636719 C 177.855469 210.449219 177.753906 212.5 177.808594 214.394531 C 177.820312 214.710938 178.300781 214.710938 178.3125 214.394531 C 178.320312 213.90625 178.320312 213.40625 178.339844 212.902344 C 178.976562 215.214844 179.597656 217.535156 180.074219 219.902344 C 180.085938 219.980469 180.097656 220.054688 180.113281 220.132812 C 179.570312 220.847656 179.105469 221.683594 178.761719 222.105469 Z M 135.21875 263.195312 C 138.136719 260.125 141.109375 257.101562 144.113281 254.101562 C 144.171875 254.1875 144.222656 254.28125 144.308594 254.351562 C 141.351562 257.375 138.304688 260.300781 135.21875 263.195312 Z M 126.207031 271.320312 C 124.738281 272.550781 123.210938 273.820312 121.683594 275.136719 C 122.09375 274.746094 122.5 274.351562 122.886719 273.957031 C 126.898438 269.835938 131.03125 265.902344 135.332031 262.101562 C 132.371094 265.269531 129.332031 268.355469 126.207031 271.320312 Z M 113.449219 281.449219 C 113.75 280.390625 113.988281 279.328125 114.242188 278.472656 C 114.449219 277.789062 114.671875 277.101562 114.886719 276.414062 C 115.667969 275.816406 116.453125 275.214844 117.238281 274.613281 C 117.417969 275.167969 118.164062 275.539062 118.625 275 C 120.15625 273.25 121.75 271.589844 123.363281 269.945312 C 125.109375 268.605469 126.835938 267.261719 128.582031 265.917969 C 127.390625 267.007812 126.207031 268.109375 125.058594 269.25 C 123.132812 271.152344 121.296875 273.160156 119.441406 275.132812 C 117.742188 276.925781 115.621094 279.929688 113.449219 281.449219 Z M 147.007812 167.171875 C 152.230469 150.859375 156.085938 134.300781 161.003906 117.933594 C 162.3125 113.582031 163.734375 109.238281 165.117188 104.90625 C 165.707031 103.042969 166.4375 99.984375 167.457031 97.078125 C 167.53125 97.363281 167.800781 97.5625 168.054688 97.527344 C 167.859375 98.582031 167.667969 99.589844 167.457031 100.449219 C 165.148438 109.582031 161.582031 119.027344 161.28125 128.503906 C 161.28125 128.570312 161.320312 128.605469 161.34375 128.660156 C 154.828125 148.042969 148.082031 167.339844 141.101562 186.585938 C 138.179688 194.675781 135.261719 202.777344 132.382812 210.882812 C 137.269531 196.308594 142.324219 181.785156 147.007812 167.171875 Z M 169.835938 97.320312 C 169.847656 97.292969 169.875 97.292969 169.890625 97.265625 C 170.359375 96.210938 170.695312 95.042969 170.960938 93.824219 C 171.128906 94.761719 171.390625 95.785156 171.757812 96.917969 C 169.875 102.855469 167.929688 108.769531 165.992188 114.6875 C 167.136719 108.847656 168.222656 102.964844 169.835938 97.320312 Z M 180.03125 99.574219 C 181.175781 101.4375 182.160156 103.328125 183.019531 105.242188 C 181.976562 103.726562 180.875 102.195312 179.839844 100.640625 C 180.042969 100.703125 180.269531 100.550781 180.222656 100.296875 C 180.167969 100.050781 180.097656 99.8125 180.03125 99.574219 Z M 272.789062 271.222656 C 272.269531 270.613281 271.675781 270.054688 271.132812 269.457031 C 269.847656 261.445312 257.597656 242.671875 256.089844 240.007812 C 245.15625 220.679688 233.832031 201.554688 223.1875 182.074219 C 215.253906 167.558594 207.28125 153.09375 199.09375 138.703125 C 196.394531 133.945312 193.742188 129.164062 191.085938 124.378906 C 190.847656 123.703125 190.585938 123.035156 190.378906 122.347656 C 189.011719 118.015625 187.730469 113.609375 185.660156 109.542969 C 185.554688 109.335938 185.421875 109.117188 185.300781 108.90625 C 184.691406 107.371094 184.03125 105.851562 183.320312 104.34375 C 182.242188 102.085938 180.847656 99.867188 179.492188 97.613281 C 179.78125 97.449219 180 97.132812 179.878906 96.808594 C 179.003906 94.476562 177.65625 92.324219 176.722656 90.011719 C 176.671875 89.886719 176.625 89.761719 176.574219 89.640625 C 176.921875 88.3125 177.269531 86.984375 177.585938 85.65625 C 177.914062 84.316406 175.9375 83.773438 175.527344 85.085938 C 175.464844 85.308594 175.386719 85.53125 175.316406 85.753906 C 175.21875 85.6875 175.105469 85.679688 174.996094 85.695312 C 174.667969 84.921875 174.363281 84.148438 173.984375 83.402344 C 173.570312 82.59375 172.1875 82.953125 172.253906 83.871094 C 172.257812 83.886719 172.253906 83.902344 172.253906 83.921875 C 171.855469 83.644531 171.453125 83.375 170.996094 83.125 C 170.367188 82.792969 169.773438 83.222656 169.695312 83.871094 C 169.449219 86.03125 169.421875 88.226562 169.246094 90.398438 C 164.855469 94.359375 162.550781 105.832031 161.265625 109.84375 C 156.136719 125.914062 152.46875 142.347656 147.199219 158.386719 C 140.976562 177.355469 134.945312 196.378906 128.433594 215.253906 C 123.335938 230.035156 118.074219 245.039062 115.386719 260.507812 C 115.359375 260.617188 115.316406 260.726562 115.277344 260.835938 C 113.800781 265.40625 112.367188 269.992188 110.949219 274.585938 C 110.785156 275.105469 110.632812 275.621094 110.480469 276.144531 C 109.203125 277.269531 107.890625 278.359375 106.648438 279.527344 L 106.683594 279.550781 C 106.007812 280.289062 106.492188 281.476562 107.296875 281.671875 C 107.015625 282.523438 106.773438 283.371094 106.773438 284.296875 C 106.773438 285.152344 107.390625 286.074219 108.265625 286.253906 C 110.964844 286.792969 112.238281 284.953125 113.035156 282.757812 C 113.117188 282.785156 113.199219 282.816406 113.296875 282.789062 C 113.757812 282.679688 114.082031 282.605469 114.351562 282.496094 C 112.617188 284.65625 111.167969 286.917969 110.328125 289.351562 C 110.269531 289.519531 110.488281 289.699219 110.640625 289.589844 C 118.828125 283.769531 126.089844 275.910156 133.652344 269.203125 C 141.789062 261.984375 151.15625 254.570312 156.976562 245.230469 C 157.347656 244.648438 157.242188 243.996094 156.90625 243.507812 C 159.960938 241.085938 163.480469 238.464844 165.191406 235.074219 C 167.917969 233.460938 170.339844 231.453125 172.726562 229.386719 C 172.316406 229.835938 171.914062 230.28125 171.484375 230.707031 C 171.488281 230.707031 171.5 230.710938 171.507812 230.710938 C 170.832031 231.371094 171.773438 232.539062 172.628906 231.84375 C 175.246094 229.710938 176.882812 226.761719 179.214844 224.417969 C 179.558594 224.523438 179.902344 224.636719 180.261719 224.714844 C 169.605469 235.402344 159.273438 246.789062 147.824219 256.550781 C 147.511719 256.816406 147.957031 257.257812 148.273438 257.003906 C 159.800781 247.554688 169.339844 235.675781 180.832031 226.242188 C 181.03125 228.398438 181.277344 230.546875 181.910156 232.578125 C 182.105469 233.214844 183.035156 233.234375 183.214844 232.578125 C 183.820312 230.4375 183.949219 227.960938 183.769531 225.382812 C 183.894531 225.410156 184.027344 225.433594 184.148438 225.460938 C 185.105469 225.703125 186.035156 226.03125 186.976562 226.324219 C 200.109375 232.402344 213.335938 236.167969 224.980469 245.574219 C 235.980469 254.46875 248.476562 261.976562 259.960938 270.25 C 260.640625 270.734375 261.285156 270.390625 261.59375 269.820312 C 262.003906 270.136719 262.40625 270.445312 262.804688 270.753906 C 264.691406 272.226562 267.167969 274.496094 269.628906 274.789062 C 269.640625 274.789062 269.652344 274.777344 269.667969 274.777344 C 271.664062 276.621094 274.675781 273.460938 272.789062 271.222656 " fill-opacity="1" fill-rule="nonzero"/></svg>