<svg xmlns="http://www.w3.org/2000/svg" xmlns:xlink="http://www.w3.org/1999/xlink" width="500" zoomAndPan="magnify" viewBox="0 0 375 374.999991" height="500" preserveAspectRatio="xMidYMid meet" version="1.0"><defs><g/><clipPath id="id1"><path d="M 42.957031 21.265625 L 333.207031 21.265625 L 333.207031 235.015625 L 42.957031 235.015625 Z M 42.957031 21.265625 " clip-rule="nonzero"/></clipPath><clipPath id="id2"><path d="M 42.957031 270.761719 L 333.207031 270.761719 L 333.207031 309.945312 L 42.957031 309.945312 Z M 42.957031 270.761719 " clip-rule="nonzero"/></clipPath><clipPath id="id3"><path d="M 65.847656 44.179688 L 311 44.179688 L 311 289 L 65.847656 289 Z M 65.847656 44.179688 " clip-rule="nonzero"/></clipPath></defs><g clip-path="url(#id1)"><path fill="#545454" d="M 188.035156 311.515625 C 108.082031 311.515625 42.957031 246.394531 42.957031 166.339844 C 42.957031 86.289062 108.082031 21.265625 188.035156 21.265625 C 267.988281 21.265625 333.109375 86.386719 333.109375 166.339844 C 333.207031 246.394531 268.085938 311.515625 188.035156 311.515625 Z M 188.035156 23.722656 C 109.355469 23.722656 45.414062 87.664062 45.414062 166.339844 C 45.414062 245.019531 109.457031 309.058594 188.035156 309.058594 C 266.613281 309.058594 330.753906 245.019531 330.753906 166.339844 C 330.753906 87.664062 266.710938 23.722656 188.035156 23.722656 Z M 188.035156 23.722656 " fill-opacity="1" fill-rule="nonzero"/></g><g clip-path="url(#id2)"><path fill="#545454" d="M 188.035156 309.945312 C 108.082031 309.945312 42.957031 244.824219 42.957031 164.773438 C 42.957031 84.722656 108.082031 19.695312 188.035156 19.695312 C 267.988281 19.695312 333.109375 84.820312 333.109375 164.773438 C 333.207031 244.824219 268.085938 309.945312 188.035156 309.945312 Z M 188.035156 22.152344 C 109.355469 22.152344 45.414062 86.097656 45.414062 164.773438 C 45.414062 243.449219 109.457031 307.492188 188.035156 307.492188 C 266.613281 307.492188 330.753906 243.449219 330.753906 164.773438 C 330.753906 86.097656 266.710938 22.152344 188.035156 22.152344 Z M 188.035156 22.152344 " fill-opacity="1" fill-rule="nonzero"/></g><g clip-path="url(#id3)"><path fill="#545454" d="M 188.933594 287.96875 C 122.878906 287.96875 69.078125 234.546875 68.375 168.613281 L 81.535156 168.613281 C 82.195312 227.480469 130.085938 274.855469 188.933594 274.851562 C 189.628906 274.851562 190.191406 274.285156 190.191406 273.59375 C 190.191406 272.898438 189.628906 272.335938 188.933594 272.335938 C 131.519531 272.335938 84.699219 225.953125 84.046875 168.613281 L 177.683594 168.613281 C 178.261719 173.875 182.417969 178.03125 187.679688 178.613281 L 187.679688 218.464844 L 172.859375 233.238281 C 172.304688 233.65625 172.191406 234.441406 172.609375 234.996094 C 173.023438 235.554688 173.8125 235.664062 174.367188 235.25 C 174.460938 235.179688 174.546875 235.09375 174.617188 234.996094 L 187.628906 221.984375 L 187.628906 232.335938 L 172.859375 247.160156 C 172.304688 247.574219 172.191406 248.363281 172.609375 248.917969 C 173.023438 249.472656 173.8125 249.585938 174.367188 249.167969 C 174.460938 249.097656 174.546875 249.015625 174.617188 248.917969 L 187.628906 235.902344 L 187.628906 246.257812 L 172.859375 261.03125 C 172.304688 261.445312 172.191406 262.234375 172.609375 262.789062 C 173.023438 263.34375 173.8125 263.457031 174.367188 263.039062 C 174.460938 262.96875 174.546875 262.882812 174.617188 262.789062 L 187.628906 249.773438 L 187.628906 256.859375 C 187.628906 257.550781 188.191406 258.113281 188.882812 258.113281 C 189.578125 258.113281 190.140625 257.550781 190.140625 256.859375 L 190.140625 249.824219 L 203.199219 262.839844 C 203.757812 263.253906 204.542969 263.140625 204.957031 262.589844 C 205.292969 262.140625 205.292969 261.527344 204.957031 261.082031 L 190.191406 246.257812 L 190.191406 235.902344 L 203.199219 248.917969 C 203.757812 249.335938 204.542969 249.222656 204.957031 248.667969 C 205.292969 248.222656 205.292969 247.605469 204.957031 247.160156 L 190.140625 232.335938 L 190.140625 221.984375 L 203.152344 234.996094 C 203.703125 235.414062 204.492188 235.300781 204.910156 234.746094 C 205.242188 234.300781 205.242188 233.6875 204.910156 233.238281 L 190.089844 218.414062 L 190.089844 178.613281 C 192.410156 178.34375 194.585938 177.359375 196.320312 175.796875 L 246.402344 220.878906 C 241.019531 226.691406 234.785156 231.65625 227.917969 235.601562 C 227.28125 235.886719 227.003906 236.632812 227.289062 237.261719 C 227.574219 237.894531 228.320312 238.175781 228.949219 237.890625 C 229.027344 237.855469 229.101562 237.8125 229.171875 237.761719 C 236.269531 233.679688 242.703125 228.546875 248.261719 222.535156 L 277.546875 248.917969 C 254.785156 273.78125 222.636719 287.945312 188.933594 287.96875 Z M 200.1875 168.613281 L 267.550781 168.613281 C 267.234375 187.167969 260.382812 205.015625 248.210938 219.015625 L 198.128906 173.9375 C 199.261719 172.371094 199.972656 170.535156 200.1875 168.613281 Z M 190.191406 158.664062 C 194.992188 159.394531 198.285156 163.878906 197.554688 168.683594 C 196.976562 172.484375 193.992188 175.46875 190.191406 176.050781 Z M 188.933594 98.960938 C 188.242188 98.960938 187.679688 99.523438 187.679688 100.21875 L 187.679688 127.90625 L 176.679688 113.785156 L 188.933594 78.609375 L 201.191406 113.835938 L 190.191406 127.957031 L 190.191406 100.21875 C 190.191406 99.523438 189.628906 98.960938 188.933594 98.960938 Z M 187.679688 158.664062 L 187.679688 176.050781 C 182.878906 175.316406 179.582031 170.832031 180.316406 166.03125 C 180.894531 162.226562 183.878906 159.242188 187.679688 158.664062 Z M 68.375 166.101562 C 68.648438 137.171875 79.355469 109.316406 98.515625 87.652344 L 127.800781 114.035156 C 115.21875 128.496094 108.136719 146.933594 107.808594 166.101562 Z M 110.320312 166.101562 C 110.636719 147.542969 117.484375 129.695312 129.660156 115.695312 L 179.742188 160.773438 C 178.609375 162.339844 177.898438 164.175781 177.683594 166.101562 Z M 279.355469 247.058594 L 250.070312 220.675781 C 262.664062 206.203125 269.746094 187.746094 270.0625 168.5625 L 309.496094 168.5625 C 309.230469 197.503906 298.527344 225.382812 279.355469 247.058594 Z M 188.933594 46.746094 C 254.992188 46.746094 308.792969 100.167969 309.496094 166.101562 L 296.335938 166.101562 C 295.671875 107.234375 247.78125 59.859375 188.933594 59.863281 C 188.242188 59.863281 187.679688 60.425781 187.679688 61.121094 C 187.679688 61.8125 188.242188 62.375 188.933594 62.375 C 246.351562 62.375 293.167969 108.761719 293.824219 166.101562 L 200.1875 166.101562 C 199.609375 160.835938 195.453125 156.679688 190.191406 156.097656 L 190.191406 131.976562 L 203.554688 114.789062 C 203.824219 114.453125 203.902344 113.992188 203.753906 113.585938 L 190.140625 74.335938 C 189.90625 73.683594 189.183594 73.347656 188.53125 73.585938 C 188.179688 73.710938 187.90625 73.988281 187.777344 74.335938 L 174.117188 113.632812 C 173.96875 114.046875 174.046875 114.5 174.316406 114.84375 L 187.679688 132.027344 L 187.679688 156.148438 C 185.363281 156.417969 183.183594 157.402344 181.449219 158.964844 L 131.367188 113.886719 C 136.75 108.070312 142.984375 103.109375 149.851562 99.160156 C 150.484375 98.875 150.765625 98.132812 150.480469 97.5 C 150.195312 96.867188 149.449219 96.585938 148.820312 96.871094 C 148.742188 96.90625 148.667969 96.949219 148.597656 97 C 141.5 101.082031 135.066406 106.214844 129.507812 112.226562 L 100.222656 85.792969 C 123.007812 60.90625 155.199219 46.738281 188.933594 46.746094 Z M 188.933594 44.234375 C 120.964844 44.257812 65.878906 99.398438 65.90625 167.398438 C 65.917969 200.027344 78.871094 231.316406 101.929688 254.398438 C 151.03125 301.417969 228.933594 299.71875 275.9375 250.601562 C 321.5 202.988281 321.5 127.925781 275.9375 80.316406 C 252.917969 57.148438 221.589844 44.15625 188.933594 44.234375 " fill-opacity="1" fill-rule="nonzero"/></g><g fill="#545454" fill-opacity="1"><g transform="translate(9.007727, 343.537713)"><g><path d="M 10.589844 -17.917969 C 5.34375 -17.917969 1.128906 -14.429688 1.128906 -8.785156 C 1.128906 -3.136719 5.34375 0.351562 10.589844 0.351562 C 15.808594 0.351562 20.027344 -3.136719 20.027344 -8.785156 C 20.027344 -14.429688 15.808594 -17.917969 10.589844 -17.917969 Z M 11.59375 -0.101562 C 7.078125 -0.101562 3.839844 -5.21875 3.839844 -10.289062 C 3.839844 -14.53125 6.097656 -17.464844 9.5625 -17.464844 C 14.078125 -17.464844 17.316406 -12.347656 17.316406 -7.300781 C 17.316406 -3.035156 15.058594 -0.101562 11.59375 -0.101562 Z M 11.59375 -0.101562 "/></g></g></g><g fill="#545454" fill-opacity="1"><g transform="translate(50.010804, 343.537713)"><g><path d="M 18.820312 -17.441406 L 18.820312 -17.566406 L 12.445312 -17.566406 L 12.445312 -17.441406 C 13.476562 -17.316406 14.355469 -17.039062 14.355469 -16.136719 L 14.355469 -8.882812 L 4.84375 -8.882812 L 4.84375 -16.136719 C 4.84375 -17.039062 5.722656 -17.316406 6.75 -17.441406 L 6.75 -17.566406 L 0.375 -17.566406 L 0.375 -17.441406 C 1.40625 -17.316406 2.285156 -17.039062 2.285156 -16.136719 L 2.285156 -1.429688 C 2.285156 -0.527344 1.40625 -0.25 0.375 -0.125 L 0.375 0 L 6.75 0 L 6.75 -0.125 C 5.722656 -0.25 4.84375 -0.527344 4.84375 -1.429688 L 4.84375 -8.457031 L 14.355469 -8.457031 L 14.355469 -1.429688 C 14.355469 -0.527344 13.476562 -0.25 12.445312 -0.125 L 12.445312 0 L 18.820312 0 L 18.820312 -0.125 C 17.792969 -0.25 16.914062 -0.527344 16.914062 -1.429688 L 16.914062 -16.136719 C 16.914062 -17.039062 17.792969 -17.316406 18.820312 -17.441406 Z M 18.820312 -17.441406 "/></g></g></g><g fill="#545454" fill-opacity="1"><g transform="translate(89.056873, 343.537713)"><g><path d="M 17.191406 -3.160156 L 11.894531 -16.539062 C 11.367188 -17.84375 11.34375 -18.042969 11.34375 -18.242188 L 9.007812 -16.714844 L 8.609375 -16.4375 L 8.65625 -15.886719 L 3.085938 -3.035156 C 2.15625 -0.878906 1.554688 -0.402344 0.5 -0.101562 L 0.5 0 L 5.121094 0 L 5.121094 -0.101562 C 3.714844 -0.402344 2.710938 -0.851562 3.640625 -3.011719 L 4.191406 -4.265625 L 14.003906 -4.265625 L 14.503906 -3.011719 C 15.382812 -0.804688 14.378906 -0.25 12.621094 -0.101562 L 12.621094 0 L 19.675781 0 L 19.675781 -0.101562 C 18.546875 -0.25 18.09375 -0.851562 17.191406 -3.160156 Z M 4.367188 -4.71875 L 9.285156 -16.0625 L 13.828125 -4.71875 Z M 4.367188 -4.71875 "/></g></g></g><g fill="#545454" fill-opacity="1"><g transform="translate(129.081442, 343.537713)"><g><path d="M 13.402344 -17.566406 L 13.402344 -17.464844 C 15.03125 -17.214844 15.960938 -16.8125 14.832031 -15.03125 L 10.390625 -8.054688 L 5.972656 -15.28125 L 4.617188 -17.566406 L 0.375 -17.566406 L 0.375 -17.464844 C 1.203125 -17.316406 2.132812 -16.738281 3.035156 -15.28125 L 8.128906 -7.078125 L 8.128906 -1.429688 C 8.128906 -0.527344 7.253906 -0.25 5.972656 -0.125 L 5.972656 0 L 12.847656 0 L 12.847656 -0.125 C 11.570312 -0.25 10.691406 -0.527344 10.691406 -1.429688 L 10.691406 -7.578125 L 15.457031 -15.007812 C 16.585938 -16.761719 17.566406 -17.164062 18.945312 -17.464844 L 18.945312 -17.566406 Z M 13.402344 -17.566406 "/></g></g></g><g fill="#545454" fill-opacity="1"><g transform="translate(168.252964, 343.537713)"><g><path d="M 10.589844 -17.917969 C 5.34375 -17.917969 1.128906 -14.429688 1.128906 -8.785156 C 1.128906 -3.136719 5.34375 0.351562 10.589844 0.351562 C 15.808594 0.351562 20.027344 -3.136719 20.027344 -8.785156 C 20.027344 -14.429688 15.808594 -17.917969 10.589844 -17.917969 Z M 11.59375 -0.101562 C 7.078125 -0.101562 3.839844 -5.21875 3.839844 -10.289062 C 3.839844 -14.53125 6.097656 -17.464844 9.5625 -17.464844 C 14.078125 -17.464844 17.316406 -12.347656 17.316406 -7.300781 C 17.316406 -3.035156 15.058594 -0.101562 11.59375 -0.101562 Z M 11.59375 -0.101562 "/></g></g></g><g fill="#545454" fill-opacity="1"><g transform="translate(209.256043, 343.537713)"><g/></g></g><g fill="#545454" fill-opacity="1"><g transform="translate(234.126296, 343.537713)"><g><path d="M 11.140625 -10.164062 C 12.773438 -10.640625 14.53125 -12.121094 14.53125 -14.078125 C 14.53125 -16.664062 11.46875 -17.566406 7.402344 -17.566406 L 0.375 -17.566406 L 0.375 -17.441406 C 1.40625 -17.316406 2.285156 -17.039062 2.285156 -16.136719 L 2.285156 -1.933594 C 2.285156 -1.027344 1.40625 -0.5 0.375 -0.125 L 0.375 0 L 8.40625 0 C 13.125 0 16.1875 -2.507812 16.1875 -5.796875 C 16.1875 -8.40625 14.277344 -9.8125 11.140625 -10.164062 Z M 7.554688 -17.164062 C 10.816406 -17.164062 12.046875 -15.359375 12.046875 -12.972656 C 12.046875 -10.664062 10.890625 -10.238281 9.535156 -10.238281 L 4.84375 -10.238281 L 4.84375 -17.164062 Z M 8.984375 -0.453125 C 7.78125 -0.453125 6.273438 -0.628906 4.84375 -1.003906 L 4.84375 -9.8125 L 8.332031 -9.8125 C 13.050781 -9.8125 13.652344 -7.277344 13.652344 -4.917969 C 13.652344 -1.328125 12.246094 -0.453125 8.984375 -0.453125 Z M 8.984375 -0.453125 "/></g></g></g><g fill="#545454" fill-opacity="1"><g transform="translate(271.165165, 343.537713)"><g><path d="M 14.832031 -4.894531 C 12.972656 -1.984375 11.769531 -0.402344 8.304688 -0.402344 L 4.84375 -0.402344 L 4.84375 -16.136719 C 4.84375 -17.039062 5.722656 -17.316406 7 -17.441406 L 7 -17.566406 L 0.375 -17.566406 L 0.375 -17.441406 C 1.40625 -17.316406 2.285156 -17.039062 2.285156 -16.136719 L 2.285156 -1.933594 C 2.285156 -1.027344 1.40625 -0.5 0.375 -0.125 L 0.375 0 L 12.699219 0 L 13.550781 0.550781 L 13.703125 0 L 14.929688 -4.84375 Z M 14.832031 -4.894531 "/></g></g></g><g fill="#545454" fill-opacity="1"><g transform="translate(306.322283, 343.537713)"><g><path d="M 10.589844 -17.917969 C 5.34375 -17.917969 1.128906 -14.429688 1.128906 -8.785156 C 1.128906 -3.136719 5.34375 0.351562 10.589844 0.351562 C 15.808594 0.351562 20.027344 -3.136719 20.027344 -8.785156 C 20.027344 -14.429688 15.808594 -17.917969 10.589844 -17.917969 Z M 11.59375 -0.101562 C 7.078125 -0.101562 3.839844 -5.21875 3.839844 -10.289062 C 3.839844 -14.53125 6.097656 -17.464844 9.5625 -17.464844 C 14.078125 -17.464844 17.316406 -12.347656 17.316406 -7.300781 C 17.316406 -3.035156 15.058594 -0.101562 11.59375 -0.101562 Z M 11.59375 -0.101562 "/></g></g></g><g fill="#545454" fill-opacity="1"><g transform="translate(347.325362, 343.537713)"><g><path d="M 19.800781 -7.578125 L 19.800781 -7.703125 L 10.664062 -7.703125 L 10.164062 -7.402344 C 14.453125 -7.277344 15.332031 -7.152344 15.332031 -6.25 L 15.332031 -2.03125 C 14.679688 -1.203125 13.675781 -0.753906 12.144531 -0.753906 C 7.453125 -0.753906 3.941406 -5.019531 3.941406 -10.238281 C 3.941406 -14.929688 6.726562 -17.390625 10.089844 -17.390625 C 13.976562 -17.390625 16.0625 -14.203125 14.707031 -10.867188 L 14.78125 -10.839844 L 17.96875 -15.28125 C 16.8125 -16.6875 14.53125 -17.917969 11.292969 -17.917969 C 6.125 -17.917969 1.128906 -14.582031 1.128906 -8.785156 C 1.128906 -3.386719 5.546875 0.351562 10.339844 0.351562 C 12.496094 0.351562 14.230469 -0.402344 15.332031 -1.582031 L 15.082031 0 L 19.800781 0 L 19.800781 -0.125 C 18.769531 -0.25 17.894531 -0.527344 17.894531 -1.429688 L 17.894531 -6.25 C 17.894531 -7.152344 18.769531 -7.453125 19.800781 -7.578125 Z M 19.800781 -7.578125 "/></g></g></g></svg>