<svg xmlns="http://www.w3.org/2000/svg" xmlns:xlink="http://www.w3.org/1999/xlink" width="500" zoomAndPan="magnify" viewBox="0 0 375 374.999991" height="500" preserveAspectRatio="xMidYMid meet" version="1.0"><defs><clipPath id="id1"><path d="M 20.339844 37.214844 L 350.050781 37.214844 L 350.050781 367.351562 L 20.339844 367.351562 Z M 20.339844 37.214844 " clip-rule="nonzero"/></clipPath><clipPath id="id2"><path d="M 108 13.351562 L 166 13.351562 L 166 39 L 108 39 Z M 108 13.351562 " clip-rule="nonzero"/></clipPath></defs><g clip-path="url(#id1)"><path fill="#B0626B" d="M 196.085938 367.351562 C 99.179688 367.351562 20.339844 288.488281 20.339844 191.546875 C 20.339844 127.738281 55.007812 68.820312 110.816406 37.785156 C 111.207031 37.566406 111.707031 37.707031 111.925781 38.101562 C 112.140625 38.492188 112 38.988281 111.605469 39.207031 C 56.316406 69.957031 21.96875 128.328125 21.96875 191.546875 C 21.96875 287.585938 100.078125 365.722656 196.085938 365.722656 C 259.410156 365.722656 317.820312 331.261719 348.523438 275.785156 C 348.738281 275.394531 349.238281 275.25 349.628906 275.46875 C 350.023438 275.683594 350.164062 276.179688 349.949219 276.574219 C 318.960938 332.566406 260.003906 367.351562 196.085938 367.351562 " fill-opacity="1" fill-rule="nonzero"/></g><g clip-path="url(#id2)"><path fill="#B0626B" d="M 165.285156 14.824219 C 164.960938 14.355469 164.316406 14.015625 163.867188 14.058594 C 163.789062 13.984375 163.703125 13.921875 163.613281 13.863281 C 162.789062 13.328125 161.453125 13.371094 159.820312 13.679688 C 158.007812 14.027344 154.996094 15.164062 152.804688 15.964844 C 150.617188 16.769531 145.894531 18.699219 143.078125 19.867188 C 142.65625 20.039062 142.042969 20.289062 141.316406 20.574219 C 140.085938 20.523438 137.667969 20.421875 136.738281 20.390625 C 135.472656 20.347656 126.074219 20.121094 125.53125 20.203125 C 124.988281 20.285156 124.246094 20.625 124.183594 20.78125 C 124.125 20.9375 124.316406 20.90625 124.726562 21.03125 C 125.136719 21.15625 127.832031 21.652344 128.214844 21.765625 C 128.546875 21.859375 132.910156 22.902344 134.359375 23.320312 C 131.085938 24.609375 127.847656 25.890625 126.316406 26.550781 C 125.921875 26.71875 125.449219 26.929688 124.921875 27.171875 C 123.089844 27.09375 121.53125 26.566406 120.382812 26.066406 C 119.136719 25.519531 112.25 22.566406 111.769531 22.464844 C 111.292969 22.363281 109.421875 22.925781 108.332031 23.546875 C 108.757812 24.125 112.777344 28.425781 114.46875 30.328125 C 113.640625 30.324219 112.210938 30.316406 111.796875 30.371094 C 111.347656 30.433594 110.621094 30.664062 109.699219 31.160156 C 109.628906 31.195312 109.632812 31.296875 109.707031 31.328125 C 110.472656 31.664062 112.414062 32.402344 113.570312 32.804688 C 113.0625 33.085938 112.605469 33.339844 112.222656 33.570312 C 112.113281 33.617188 112.152344 33.933594 112.304688 34.273438 C 112.453125 34.613281 112.660156 34.851562 112.765625 34.8125 C 113.746094 34.757812 114.980469 34.648438 116.316406 34.496094 C 116.140625 34.921875 115.214844 37.246094 115.214844 37.246094 C 115.214844 37.246094 117.179688 36.757812 117.875 36.402344 C 118.761719 35.953125 121.214844 34.5 122.550781 33.65625 C 125.011719 33.277344 127.15625 32.902344 128.15625 32.671875 C 130.519531 32.128906 137.925781 29.21875 139.15625 28.761719 C 139.503906 28.628906 140.683594 28.144531 142.203125 27.519531 C 142.417969 27.628906 142.550781 27.808594 142.613281 28.011719 C 142.636719 28.101562 142.65625 28.195312 142.648438 28.292969 L 141.261719 38.179688 L 141.183594 38.75 C 141.175781 38.875 141.296875 38.960938 141.40625 38.914062 L 143.140625 38.191406 C 143.289062 38.128906 143.414062 38.03125 143.515625 37.910156 C 143.882812 37.457031 145.085938 35.085938 146.375 32.507812 C 146.921875 32.34375 147.472656 32.183594 148.019531 32.007812 C 148.363281 31.894531 148.707031 31.78125 149.035156 31.667969 C 149.625 31.472656 150.179688 31.277344 150.675781 31.105469 C 150.894531 31.027344 151.050781 30.828125 151.066406 30.601562 C 151.105469 30.082031 151.03125 29.480469 150.835938 28.859375 C 150.59375 28.109375 150.214844 27.480469 149.796875 27.070312 C 149.640625 26.917969 149.410156 26.882812 149.214844 26.96875 C 149.179688 26.988281 149.140625 27.003906 149.105469 27.019531 C 149.613281 26.019531 149.988281 25.304688 150.117188 25.140625 C 150.433594 24.730469 150.925781 24.226562 151.371094 23.714844 C 152.101562 23.410156 152.644531 23.1875 152.867188 23.097656 C 154.148438 22.589844 156.800781 21.429688 158.308594 20.714844 C 160.96875 19.449219 162.988281 18.183594 164.085938 17.351562 C 165.183594 16.515625 165.609375 15.289062 165.285156 14.824219 " fill-opacity="1" fill-rule="nonzero"/></g></svg>